<svg width="32" height="32" viewBox="0 0 32 32" fill="none" xmlns="http://www.w3.org/2000/svg">
<path d="M4.59229 4.89551C5.3335 4.1543 6.12842 3.49902 6.97705 2.92969C7.83643 2.36035 8.7334 1.88232 9.66797 1.49561C10.6133 1.09814 11.5854 0.802734 12.5845 0.609375C13.5942 0.405273 14.6255 0.303223 15.6782 0.303223C16.7202 0.303223 17.7461 0.405273 18.7559 0.609375C19.7656 0.802734 20.7378 1.09814 21.6724 1.49561C22.6177 1.88232 23.5146 2.36035 24.3633 2.92969C25.2227 3.49902 26.0229 4.1543 26.7642 4.89551C27.5054 5.63672 28.1606 6.43701 28.73 7.29639C29.2993 8.14502 29.7773 9.04199 30.1641 9.9873C30.5508 10.9219 30.8462 11.894 31.0503 12.9038C31.2544 13.9028 31.3564 14.9287 31.3564 15.9814C31.3564 17.0234 31.2544 18.0493 31.0503 19.0591C30.8462 20.0688 30.5508 21.041 30.1641 21.9756C29.7773 22.9102 29.2993 23.8071 28.73 24.6665C28.1606 25.5259 27.5054 26.3208 26.7642 27.0513C26.0229 27.7925 25.2227 28.4531 24.3633 29.0332C23.5146 29.6025 22.6177 30.0806 21.6724 30.4673C20.7378 30.854 19.7656 31.144 18.7559 31.3374C17.7461 31.5415 16.7202 31.6436 15.6782 31.6436C14.6255 31.6436 13.5942 31.5415 12.5845 31.3374C11.5854 31.144 10.6133 30.854 9.66797 30.4673C8.7334 30.0806 7.83643 29.6025 6.97705 29.0332C6.12842 28.4531 5.3335 27.7925 4.59229 27.0513C3.85107 26.3208 3.1958 25.5259 2.62646 24.6665C2.05713 23.8071 1.57373 22.9102 1.17627 21.9756C0.789551 21.041 0.494141 20.0688 0.290039 19.0591C0.0966797 18.0493 0 17.0234 0 15.9814C0 14.9287 0.0966797 13.9028 0.290039 12.9038C0.494141 11.894 0.789551 10.9219 1.17627 9.9873C1.57373 9.04199 2.05713 8.14502 2.62646 7.29639C3.1958 6.43701 3.85107 5.63672 4.59229 4.89551ZM15.6782 30C17.6118 30 19.4272 29.6348 21.1245 28.9043C22.8325 28.1631 24.3203 27.1587 25.5879 25.8911C26.8555 24.6235 27.8545 23.1411 28.585 21.4438C29.3262 19.7358 29.6968 17.915 29.6968 15.9814C29.6968 14.0479 29.3262 12.2324 28.585 10.5352C27.8545 8.82715 26.8555 7.33936 25.5879 6.07178C24.3203 4.79346 22.8325 3.78906 21.1245 3.05859C19.4272 2.31738 17.6118 1.94678 15.6782 1.94678C13.7446 1.94678 11.9238 2.31738 10.2158 3.05859C8.51855 3.78906 7.03076 4.79346 5.75244 6.07178C4.48486 7.33936 3.48047 8.82715 2.73926 10.5352C2.00879 12.2324 1.64355 14.0479 1.64355 15.9814C1.64355 17.915 2.00879 19.7358 2.73926 21.4438C3.48047 23.1411 4.48486 24.6235 5.75244 25.8911C7.03076 27.1587 8.51855 28.1631 10.2158 28.9043C11.9238 29.6348 13.7446 30 15.6782 30ZM18.1436 25.0532C18.251 25.0532 18.353 25.0317 18.4497 24.9888C18.5571 24.9458 18.6538 24.8867 18.7397 24.8115C18.9009 24.6504 18.9814 24.457 18.9814 24.2314C18.9814 23.9951 18.9009 23.7964 18.7397 23.6353L11.0698 15.9814L18.7397 8.31152C18.9009 8.15039 18.9814 7.95703 18.9814 7.73145C18.9814 7.49512 18.9009 7.29639 18.7397 7.13525C18.5786 6.97412 18.3799 6.89355 18.1436 6.89355C17.918 6.89355 17.7246 6.97412 17.5635 7.13525L9.31348 15.3853C9.15234 15.5464 9.07178 15.7451 9.07178 15.9814C9.07178 16.207 9.15234 16.4004 9.31348 16.5615L17.5635 24.8115C17.6494 24.8867 17.7407 24.9458 17.8374 24.9888C17.9448 25.0317 18.0469 25.0532 18.1436 25.0532Z" fill="white"/>
</svg>
