<svg width="72" height="73" viewBox="0 0 72 73" fill="none" xmlns="http://www.w3.org/2000/svg">
<path d="M0.400024 36.8C0.300024 36.7 0.200012 36.6 0.200012 36.4C0.200012 36.3 0.199988 36.2 0.299988 36.1C0.299988 36 0.4 36 0.5 35.9C0.6 35.9 0.699988 35.8 0.799988 35.9C0.899988 35.9 0.999976 36 1.09998 36C1.19998 36.1 1.20001 36.2 1.20001 36.2C1.20001 36.3 1.20001 36.4 1.20001 36.5C1.20001 36.6 1.1 36.7 1 36.7C0.9 36.7 0.800012 36.8 0.700012 36.8C0.600012 36.9 0.400024 36.9 0.400024 36.8Z" fill="#0F0F0F"/>
<path d="M0.799988 39.8C0.699988 39.8 0.6 39.7 0.5 39.7C0.4 39.6 0.399988 39.5 0.299988 39.4C0.299988 39.3 0.300024 39.2 0.400024 39.1C0.400024 39 0.499976 38.9 0.599976 38.9C0.699976 38.9 0.800024 38.8 0.900024 38.9C1.00002 38.9 1.10001 38.9 1.20001 39C1.30001 39.1 1.30002 39.2 1.40002 39.2C1.40002 39.3 1.40002 39.4 1.40002 39.5C1.40002 39.6 1.30001 39.7 1.20001 39.7C1.00001 39.7 0.899988 39.8 0.799988 39.8Z" fill="#0F0F0F"/>
<path d="M0.400024 33.8C0.300024 33.7 0.299988 33.6 0.299988 33.5C0.299988 33.4 0.4 33.3 0.5 33.2C0.6 33.1 0.699988 33.1 0.799988 33.1C0.899988 33.1 0.999976 33.2 1.09998 33.2C1.19998 33.3 1.20001 33.4 1.20001 33.6C1.20001 33.7 1.09998 33.8 1.09998 33.9C0.999976 34 0.899988 34 0.799988 34C0.599988 34 0.500024 33.9 0.400024 33.8Z" fill="#0F0F0F"/>
<path d="M1.5 42.4C1.4 42.5 1.30001 42.5999 1.20001 42.5999H1.09998C0.999976 42.5999 0.899988 42.6 0.799988 42.5C0.699988 42.4 0.700012 42.3 0.700012 42.2C0.700012 42.1 0.699988 42 0.799988 41.9C0.899988 41.8 0.999976 41.7 1.09998 41.7C1.19998 41.7 1.19999 41.7 1.29999 41.7C1.39999 41.7 1.4 41.6999 1.5 41.7999C1.6 41.7999 1.59998 41.9 1.59998 41.9C1.59998 42 1.70001 41.9999 1.70001 42.0999C1.60001 42.1999 1.6 42.3 1.5 42.4Z" fill="#0F0F0F"/>
<path d="M0.799988 30.9C0.699988 30.8 0.700012 30.7 0.700012 30.5C0.700012 30.4 0.800024 30.3 0.900024 30.2C1.00002 30.1 1.09999 30.1 1.29999 30.1C1.39999 30.1 1.49998 30.2 1.59998 30.3C1.69998 30.4 1.70001 30.5 1.70001 30.7C1.70001 30.9 1.6 30.9 1.5 31C1.4 31.1 1.30001 31.1 1.20001 31.1H1.09998C0.999976 31 0.899988 31 0.799988 30.9Z" fill="#0F0F0F"/>
<path d="M2.20001 45.2C2.20001 45.3 2.09998 45.3 2.09998 45.3C1.99998 45.3 2.00002 45.4 1.90002 45.4H1.79999C1.69999 45.4 1.6 45.4 1.5 45.3C1.4 45.2 1.39999 45.1 1.29999 45C1.29999 44.9 1.30002 44.7 1.40002 44.6C1.50002 44.5 1.60001 44.4 1.70001 44.4C1.80001 44.4 1.80002 44.4 1.90002 44.4C2.00002 44.4 1.99998 44.4 2.09998 44.5C2.19998 44.5 2.20001 44.6 2.20001 44.6C2.20001 44.6 2.29999 44.7 2.29999 44.8C2.29999 44.9 2.29999 44.9 2.29999 45C2.19999 45.1 2.20001 45.2 2.20001 45.2Z" fill="#0F0F0F"/>
<path d="M1.40002 28C1.30002 27.9 1.29999 27.7999 1.29999 27.5999C1.29999 27.4999 1.30002 27.5 1.40002 27.4C1.40002 27.4 1.49998 27.2999 1.59998 27.2999C1.59998 27.2999 1.69999 27.2 1.79999 27.2C1.89999 27.2 1.9 27.2 2 27.2C2.1 27.2 2.10001 27.1999 2.20001 27.2999C2.30001 27.2999 2.29999 27.4 2.29999 27.4C2.29999 27.5 2.40002 27.4999 2.40002 27.5999C2.40002 27.6999 2.40002 27.6999 2.40002 27.7999C2.40002 27.8999 2.30001 27.9999 2.20001 28.0999C2.10001 28.1999 2.00002 28.2 1.90002 28.2H1.79999C1.49999 28.2 1.40002 28.1 1.40002 28Z" fill="#0F0F0F"/>
<path d="M3 47.5999C3 47.6999 3 47.6999 3 47.7999C3 47.8999 3 47.8999 3 47.9999C3 48.0999 2.90002 48.0999 2.90002 48.0999C2.80002 48.0999 2.80001 48.1999 2.70001 48.1999C2.70001 48.1999 2.6 48.1999 2.5 48.1999C2.4 48.1999 2.30001 48.1999 2.20001 48.0999C2.10001 47.9999 2 47.8999 2 47.7999C2 47.6999 1.99998 47.5999 2.09998 47.4999C2.19998 47.3999 2.30002 47.2999 2.40002 47.2999C2.50002 47.2999 2.49998 47.2999 2.59998 47.2999C2.69998 47.2999 2.69999 47.2999 2.79999 47.2999C2.89999 47.2999 2.9 47.3999 3 47.3999C3 47.4999 3 47.4999 3 47.5999Z" fill="#0F0F0F"/>
<path d="M2.99999 24.7C3.09999 24.8 3.09996 24.9 3.09996 25C3.09996 25.1 3.00001 25.2 2.90001 25.3C2.80001 25.4 2.69996 25.4 2.59996 25.4C2.49996 25.4 2.50001 25.4 2.40001 25.4C2.30001 25.4 2.19996 25.3 2.09996 25.2C1.99996 25.1 1.99996 25 2.09996 24.8C2.09996 24.7 2.1 24.7 2.2 24.6C2.2 24.6 2.30001 24.5 2.40001 24.5C2.40001 24.5 2.49996 24.5 2.59996 24.5C2.69996 24.5 2.69998 24.5 2.79998 24.5C2.89998 24.5 2.99999 24.6 2.99999 24.7Z" fill="#0F0F0F"/>
<path d="M4 50.2C4 50.3 4 50.4 4 50.6C3.9 50.7 3.90001 50.8 3.70001 50.9C3.60001 50.9 3.6 50.9 3.5 50.9C3.4 50.9 3.30001 50.9 3.20001 50.8C3.10001 50.8 3.1 50.7 3 50.6C3 50.5 3 50.5 3 50.4C3 50.3 3 50.3 3 50.2C3 50.1 3.09998 50.1 3.09998 50C3.09998 50 3.19999 49.9 3.29999 49.9C3.29999 49.9 3.4 49.9 3.5 49.9C3.6 49.9 3.60001 49.9 3.70001 49.9C3.80001 49.9 3.80002 50 3.90002 50C4.00002 50.1 4 50.2 4 50.2Z" fill="#0F0F0F"/>
<path d="M4.09998 22C4.09998 22.1 4.09998 22.3 4.09998 22.4C4.09998 22.5 4.00002 22.6 3.90002 22.6C3.80002 22.7 3.69998 22.7 3.59998 22.7C3.49998 22.7 3.50002 22.7 3.40002 22.7C3.30002 22.7 3.19998 22.6 3.09998 22.4C3.09998 22.3 3.09998 22.1 3.09998 22C3.19998 21.9 3.30002 21.8 3.40002 21.7C3.50002 21.6 3.69999 21.7 3.79999 21.7C3.99999 21.8 4.09998 21.9 4.09998 22Z" fill="#0F0F0F"/>
<path d="M5.29998 52.8C5.39998 52.9 5.39998 53 5.29998 53.2C5.29998 53.3 5.19996 53.4 5.09996 53.5C4.99996 53.5 5.00001 53.6 4.90001 53.6C4.80001 53.6 4.7 53.6 4.7 53.5C4.6 53.5 4.59999 53.4 4.49999 53.3C4.39999 53.2 4.39999 53.1 4.49999 52.9C4.49999 52.8 4.6 52.7 4.7 52.6C4.8 52.5 4.89996 52.5 5.09996 52.6C5.09996 52.6 5.19998 52.7 5.29998 52.8Z" fill="#0F0F0F"/>
<path d="M5.40002 19.5C5.40002 19.6 5.40002 19.6 5.40002 19.7C5.40002 19.8 5.39999 19.8 5.29999 19.9C5.29999 20 5.19998 20 5.09998 20.1C4.99998 20.1 4.90002 20.2 4.90002 20.2C4.80002 20.2 4.70001 20.2 4.70001 20.1C4.60001 20 4.5 19.8999 4.5 19.7999C4.5 19.6999 4.5 19.5 4.5 19.4C4.6 19.3 4.69999 19.2 4.79999 19.2C4.89999 19.2 5.10001 19.2 5.20001 19.2C5.30001 19.2 5.30002 19.2999 5.40002 19.2999C5.40002 19.3999 5.40002 19.4 5.40002 19.5Z" fill="#0F0F0F"/>
<path d="M6.70001 55.2C6.70001 55.3 6.79999 55.3 6.79999 55.4C6.79999 55.5 6.79999 55.5 6.79999 55.6C6.79999 55.7 6.80001 55.7 6.70001 55.8L6.59998 55.9C6.49998 56 6.39999 56 6.29999 56C6.19999 56 6.1 56 6 55.9C5.9 55.8 5.89999 55.7 5.79999 55.7C5.79999 55.6 5.79999 55.5 5.79999 55.4C5.79999 55.3 5.9 55.2 6 55.2C6.1 55.2 6.10001 55.1 6.20001 55.1C6.30001 55.1 6.30002 55.1 6.40002 55.1C6.50002 55.1 6.49998 55.1 6.59998 55.2C6.59998 55.1 6.70001 55.2 6.70001 55.2Z" fill="#0F0F0F"/>
<path d="M6.90002 17C6.90002 17.1 6.90002 17.1 6.90002 17.2C6.90002 17.3 6.89999 17.3 6.79999 17.4C6.79999 17.5 6.69998 17.5 6.59998 17.6C6.49998 17.6 6.40002 17.7 6.40002 17.7C6.30002 17.7 6.19998 17.7 6.09998 17.6C5.99998 17.6 6 17.5 6 17.5C6 17.5 5.90002 17.3999 5.90002 17.2999C5.90002 17.1999 5.90002 17.2 5.90002 17.1C5.90002 17 5.9 17 6 16.9C6 16.8 6.09998 16.7999 6.09998 16.7999C6.09998 16.7999 6.19999 16.7 6.29999 16.7C6.39999 16.7 6.4 16.7 6.5 16.7C6.6 16.7 6.60001 16.6999 6.70001 16.7999C6.80001 16.7999 6.79999 16.9 6.79999 16.9C6.89999 16.9 6.90002 16.9 6.90002 17Z" fill="#0F0F0F"/>
<path d="M8.40002 57.6999C8.40002 57.7999 8.40002 57.7999 8.40002 57.8999C8.40002 57.9999 8.39999 57.9999 8.29999 58.0999C8.29999 58.1999 8.20001 58.1999 8.20001 58.1999C8.10001 58.2999 8.00002 58.2999 7.90002 58.2999C7.80002 58.2999 7.80001 58.2999 7.70001 58.1999C7.60001 58.1999 7.6 58.0999 7.5 58.0999C7.4 57.9999 7.40002 57.8999 7.40002 57.6999C7.40002 57.4999 7.49998 57.4999 7.59998 57.3999C7.59998 57.3999 7.69999 57.2999 7.79999 57.2999C7.89999 57.2999 7.9 57.2999 8 57.2999C8.1 57.2999 8.10001 57.2999 8.20001 57.3999C8.30001 57.3999 8.30002 57.4999 8.40002 57.4999C8.50002 57.4999 8.40002 57.6999 8.40002 57.6999Z" fill="#0F0F0F"/>
<path d="M8.40002 14.2999C8.50002 14.3999 8.59998 14.5 8.59998 14.6C8.59998 14.7 8.6 14.9 8.5 15C8.5 15.1 8.39999 15.1 8.29999 15.1C8.19999 15.1 8.19998 15.1 8.09998 15.1C7.99998 15.1 7.89999 15.1 7.79999 15C7.69999 14.9 7.59998 14.8 7.59998 14.7C7.59998 14.6 7.60001 14.5 7.70001 14.4C7.80001 14.3 7.9 14.2 8 14.2C8.2 14.2 8.30002 14.2999 8.40002 14.2999Z" fill="#0F0F0F"/>
<path d="M10.2 59.9C10.2 60 10.2 60 10.2 60.1C10.2 60.2 10.2 60.2 10.2 60.3C10.2 60.4 10.1 60.4 10.1 60.5C9.99998 60.6 9.89999 60.6 9.79999 60.6C9.69999 60.6 9.6 60.6 9.5 60.5C9.4 60.4 9.29999 60.4 9.29999 60.3C9.29999 60.2 9.29999 60.1 9.29999 60C9.29999 59.9 9.4 59.8 9.5 59.8C9.6 59.8 9.60001 59.7 9.70001 59.7C9.80001 59.7 9.80002 59.7 9.90002 59.7C10 59.7 9.99998 59.7 10.1 59.7C10.2 59.7 10.2 59.8 10.3 59.8C10.2 59.8 10.2 59.8 10.2 59.9Z" fill="#0F0F0F"/>
<path d="M9.70001 12.9C9.60001 12.8 9.59998 12.7 9.59998 12.6C9.59998 12.5 9.60001 12.3 9.70001 12.2C9.70001 12.1 9.80002 12.1 9.90002 12.1C10 12.1 10.1 12.1 10.1 12.1C10.2 12.1 10.3 12.1 10.3 12.2C10.4 12.2 10.4 12.3 10.5 12.4C10.5 12.5 10.6 12.5 10.5 12.6C10.4 12.7 10.5 12.8 10.4 12.8C10.4 12.9 10.3 12.9 10.2 13C10.1 13 10 13.1 10 13.1C9.9 13 9.80001 12.9 9.70001 12.9Z" fill="#0F0F0F"/>
<path d="M12.2 61.8C12.3 61.9 12.3 62 12.3 62.1C12.3 62.2 12.2 62.3 12.1 62.4C12 62.5 11.9 62.5 11.8 62.5C11.7 62.5 11.6 62.5 11.5 62.4C11.4 62.4 11.4 62.3 11.3 62.2C11.3 62.1 11.3 62 11.3 61.9C11.3 61.8 11.4 61.7 11.5 61.7C11.6 61.6 11.7 61.6 11.8 61.6C12 61.7 12.1 61.7 12.2 61.8Z" fill="#0F0F0F"/>
<path d="M11.6 10.6C11.6 10.5 11.5 10.4 11.6 10.3C11.6 10.2 11.7 10.1 11.7 10.1C11.8 10 11.9 10 12 10C12.1 10 12.2 10.1 12.3 10.2C12.4 10.3 12.4 10.4 12.4 10.5C12.4 10.6 12.3 10.7 12.3 10.8C12.2 10.9 12.1 10.9 12 10.9C11.9 10.9 11.8 10.9 11.7 10.8C11.7 10.8 11.7 10.7 11.6 10.6Z" fill="#0F0F0F"/>
<path d="M14.2 63.8C14.3 63.9 14.3 64 14.3 64.1C14.3 64.2 14.3 64.3 14.2 64.4C14.2 64.4 14.1 64.5 14 64.5C13.9 64.5 13.9 64.5 13.8 64.6C13.7 64.6 13.7 64.6 13.6 64.6C13.5 64.6 13.5 64.6 13.4 64.5L13.3 64.4C13.3 64.3 13.3 64.3 13.2 64.2C13.2 64.1 13.2 64.1 13.2 64C13.2 63.9 13.2 63.9 13.3 63.8C13.4 63.7 13.5 63.6 13.6 63.6C13.7 63.6 13.8 63.6 13.9 63.6C14.1 63.7 14.1 63.7 14.2 63.8Z" fill="#0F0F0F"/>
<path d="M13.9 8.69998C13.9 8.59998 13.9 8.49997 13.9 8.39997C13.9 8.29997 14 8.19998 14.1 8.19998C14.1 8.19998 14.2 8.09998 14.3 8.09998C14.4 8.09998 14.4 8.09998 14.5 8.09998C14.6 8.09998 14.6 8.09998 14.7 8.19998C14.8 8.19998 14.8 8.29998 14.9 8.29998C14.9 8.29998 15 8.39998 15 8.49998C15 8.59998 15 8.59998 15 8.69998C15 8.79998 15 8.79997 14.9 8.89997L14.8 8.99998C14.7 9.09998 14.6 9.09998 14.5 9.09998C14.4 9.09998 14.3 9.09998 14.2 8.99998C14 8.89998 13.9 8.79998 13.9 8.69998Z" fill="#0F0F0F"/>
<path d="M16.6 65.6999C16.6 65.7999 16.6 65.8999 16.6 65.8999C16.6 65.9999 16.6 66.0999 16.5 66.0999C16.4 66.1999 16.4 66.1999 16.3 66.1999C16.2 66.1999 16.1 66.1999 16.1 66.1999C16 66.1999 16 66.1999 15.9 66.0999C15.8 66.0999 15.8 65.9999 15.7 65.8999C15.7 65.7999 15.7 65.6999 15.7 65.5999C15.7 65.4999 15.8 65.3999 15.8 65.3999C15.9 65.2999 16 65.2999 16.1 65.2999C16.2 65.2999 16.3 65.2999 16.3 65.2999C16.4 65.2999 16.5 65.3999 16.5 65.3999C16.5 65.4999 16.6 65.5999 16.6 65.6999Z" fill="#0F0F0F"/>
<path d="M16.3 7.09993C16.2 6.99993 16.2 6.89993 16.2 6.69993C16.2 6.59993 16.3 6.49993 16.4 6.39993C16.4 6.39993 16.5 6.29993 16.6 6.29993C16.7 6.29993 16.7 6.29993 16.8 6.29993C16.9 6.29993 16.9 6.29993 17 6.39993C17.1 6.39993 17.1 6.49993 17.1 6.49993C17.1 6.59993 17.2 6.59993 17.2 6.69993C17.2 6.79993 17.2 6.79993 17.2 6.89993C17.2 6.99993 17.2 6.99993 17.1 7.09993L17 7.19993C16.9 7.29993 16.8 7.29993 16.7 7.29993C16.6 7.29993 16.5 7.29993 16.5 7.19993C16.4 7.29993 16.3 7.19993 16.3 7.09993Z" fill="#0F0F0F"/>
<path d="M19.1 67.2C19.1 67.3 19.1 67.4 19.1 67.6C19.1 67.7 19 67.7 19 67.7C18.9 67.7 18.9 67.8 18.8 67.8C18.7 67.8 18.7 67.8 18.6 67.8C18.5 67.8 18.5 67.8 18.4 67.7C18.3 67.6 18.2 67.5 18.2 67.4C18.2 67.3 18.2 67.1 18.3 67C18.3 66.9 18.4 66.9 18.4 66.8C18.5 66.8 18.5 66.7 18.6 66.7C18.7 66.7 18.8 66.7 18.9 66.8C18.9 67 19 67.1 19.1 67.2Z" fill="#0F0F0F"/>
<path d="M18.8 5.59995C18.7 5.49995 18.7 5.39995 18.8 5.19995C18.8 5.09995 18.9 4.99995 19 4.89995C19.1 4.79995 19.2 4.79995 19.4 4.89995C19.5 4.89995 19.6 4.99995 19.7 5.09995C19.8 5.19995 19.8 5.29995 19.7 5.49995C19.7 5.59995 19.6 5.69995 19.5 5.79995C19.4 5.89995 19.4 5.89995 19.3 5.89995C19.2 5.89995 19.1 5.89995 19 5.79995C18.9 5.69995 18.8 5.69995 18.8 5.59995Z" fill="#0F0F0F"/>
<path d="M21.6 68.4C21.7 68.5 21.7 68.5999 21.7 68.6999C21.7 68.7999 21.7 68.8999 21.6 68.9999C21.6 69.0999 21.5 69.0999 21.4 69.1999C21.3 69.1999 21.2 69.1999 21.1 69.1999C21 69.1999 20.9 69.0999 20.9 69.0999C20.8 68.9999 20.8 68.9 20.8 68.9C20.8 68.8 20.8 68.6999 20.8 68.5999C20.9 68.4999 21 68.4 21.1 68.4C21.2 68.3 21.4 68.4 21.5 68.4C21.5 68.3 21.5 68.3 21.6 68.4Z" fill="#0F0F0F"/>
<path d="M21.4 4.29999C21.3 4.19999 21.3 3.99999 21.4 3.89999C21.5 3.79999 21.5 3.69999 21.7 3.59999C21.9 3.49999 21.9 3.59999 22.1 3.59999C22.2 3.59999 22.3 3.79999 22.4 3.89999C22.4 3.99999 22.5 4.19999 22.4 4.29999C22.3 4.39999 22.3 4.49999 22.1 4.59999C22 4.59999 22 4.59999 21.9 4.59999C21.8 4.59999 21.7 4.59999 21.6 4.49999C21.5 4.39999 21.4 4.39999 21.4 4.29999Z" fill="#0F0F0F"/>
<path d="M24.3 69.5999C24.4 69.6999 24.4 69.7999 24.3 69.9999C24.3 70.0999 24.2 70.1999 24 70.2999C23.9 70.3999 23.8 70.3999 23.6 70.2999C23.5 70.2999 23.5 70.2999 23.4 70.1999C23.4 70.1999 23.3 70.0999 23.3 69.9999C23.3 69.9999 23.3 69.8999 23.3 69.7999C23.3 69.6999 23.3 69.6999 23.3 69.5999C23.3 69.4999 23.4 69.3999 23.5 69.3999C23.6 69.2999 23.7 69.2999 23.7 69.2999C23.8 69.2999 23.9 69.2999 23.9 69.2999C24.2 69.2999 24.3 69.3999 24.3 69.5999Z" fill="#0F0F0F"/>
<path d="M24.1 3.2C24.1 3.1 24.1 3.1 24.1 3C24.1 2.9 24.1 2.9 24.1 2.8C24.1 2.7 24.2 2.7 24.2 2.6C24.3 2.6 24.3 2.5 24.4 2.5C24.5 2.5 24.6 2.5 24.8 2.5C24.9 2.5 25 2.6 25 2.8C25 2.9 25 2.9 25 3C25 3.1 25 3.1 25 3.2C25 3.2 24.9 3.3 24.9 3.4C24.9 3.4 24.8 3.5 24.7 3.5C24.6 3.5 24.6 3.5 24.5 3.5C24.4 3.5 24.3 3.5 24.2 3.4C24.2 3.4 24.1 3.3 24.1 3.2Z" fill="#0F0F0F"/>
<path d="M27.1 70.3999C27.1 70.4999 27.2 70.4999 27.2 70.5999C27.2 70.6999 27.2 70.6999 27.2 70.7999C27.2 70.8999 27.2 70.8999 27.1 70.9999L27 71.0999C26.9 71.0999 26.9 71.1999 26.8 71.1999C26.7 71.1999 26.7 71.1999 26.6 71.1999C26.5 71.1999 26.4 71.0999 26.3 70.9999C26.2 70.8999 26.2 70.7999 26.2 70.5999C26.2 70.4999 26.3 70.3999 26.4 70.3999C26.5 70.2999 26.6 70.2999 26.6 70.2999C26.7 70.2999 26.7 70.2999 26.8 70.2999C26.9 70.2999 26.9 70.2999 27 70.3999C27 70.2999 27.1 70.2999 27.1 70.3999Z" fill="#0F0F0F"/>
<path d="M27 2.59993C26.9 2.49993 26.8 2.39993 26.8 2.29993C26.8 2.19993 26.8 2.09993 26.9 1.99993C27 1.89993 27.1 1.79993 27.2 1.79993C27.3 1.79993 27.4 1.79993 27.5 1.89993C27.6 1.99993 27.7 2.09993 27.7 2.19993C27.7 2.29993 27.7 2.39993 27.6 2.49993C27.5 2.59993 27.4 2.69993 27.3 2.69993H27.2C27.2 2.69993 27.1 2.59993 27 2.59993Z" fill="#0F0F0F"/>
<path d="M29.9 70.9999C29.9 70.9999 30 71.0999 30 71.1999C30 71.2999 30 71.2999 30 71.3999C30 71.4999 29.9 71.5999 29.9 71.5999C29.8 71.6999 29.8 71.6999 29.7 71.6999C29.6 71.6999 29.5 71.6999 29.4 71.6999C29.3 71.6999 29.2 71.5999 29.2 71.5999C29.1 71.4999 29.1 71.3999 29.1 71.3999C29.1 71.2999 29.1 71.1999 29.1 71.0999C29.1 70.9999 29.2 70.8999 29.2 70.8999C29.3 70.8999 29.4 70.7999 29.4 70.7999C29.5 70.7999 29.5 70.7999 29.6 70.7999C29.7 70.7999 29.7 70.7999 29.8 70.8999L29.9 70.9999Z" fill="#0F0F0F"/>
<path d="M29.8 1.89998C29.7 1.79998 29.7 1.69998 29.6 1.59998C29.6 1.49998 29.6 1.39998 29.7 1.29998C29.8 1.19998 29.9 1.09998 30 1.09998C30.1 1.09998 30.3 1.09998 30.4 1.19998C30.5 1.29998 30.6 1.39998 30.6 1.49998C30.6 1.59998 30.6 1.59998 30.6 1.69998C30.6 1.79998 30.6 1.79998 30.5 1.89998C30.5 1.99998 30.4 1.99998 30.4 1.99998C30.3 1.99998 30.3 2.09998 30.2 2.09998H30.1C30.1 2.09998 29.9 1.99998 29.8 1.89998Z" fill="#0F0F0F"/>
<path d="M32.8 71.4C32.9 71.5 32.9 71.6 32.9 71.7C32.9 71.8 32.8 71.9 32.7 72C32.6 72.1 32.5 72.1 32.4 72.1C32.3 72.1 32.2 72 32.1 72C32 71.9 32 71.8 32 71.7C32 71.6 32 71.5 32.1 71.4C32.2 71.3 32.3 71.2 32.4 71.2H32.5C32.6 71.2 32.7 71.3 32.8 71.4Z" fill="#0F0F0F"/>
<path d="M32.7 1.59995C32.6 1.49995 32.6 1.39995 32.6 1.19995C32.6 1.09995 32.7 0.999951 32.8 0.899951C32.9 0.799951 33 0.699951 33.1 0.699951C33.2 0.699951 33.3 0.799951 33.4 0.899951C33.5 0.999951 33.6 1.09995 33.6 1.19995C33.6 1.29995 33.6 1.49995 33.5 1.59995C33.4 1.69995 33.3 1.69995 33.2 1.69995H33.1C32.9 1.69995 32.8 1.69995 32.7 1.59995Z" fill="#0F0F0F"/>
<path d="M35.6 71.4999C35.7 71.5999 35.7 71.6999 35.7 71.8999C35.7 71.9999 35.6 72.0999 35.5 72.1999C35.4 72.2999 35.3 72.2999 35.2 72.2999C35.1 72.2999 34.9 72.2999 34.8 72.1999C34.7 72.0999 34.7 71.9999 34.7 71.8999C34.7 71.7999 34.7 71.6999 34.8 71.4999C34.9 71.3999 35 71.2999 35.1 71.2999H35.2C35.4 71.3999 35.6 71.3999 35.6 71.4999Z" fill="#0F0F0F"/>
<path d="M35.6 1.49995C35.5 1.39995 35.4 1.29995 35.4 1.19995C35.4 1.09995 35.4 0.999951 35.5 0.899951C35.6 0.799951 35.6 0.799951 35.7 0.699951C35.8 0.699951 35.9 0.699951 36 0.699951C36.1 0.699951 36.2 0.799952 36.2 0.799952C36.3 0.899952 36.3 0.999951 36.3 1.09995C36.3 1.19995 36.3 1.29995 36.3 1.39995C36.3 1.49995 36.2 1.59995 36.1 1.59995C36 1.69995 35.9 1.69995 35.8 1.69995C35.9 1.59995 35.7 1.59995 35.6 1.49995Z" fill="#0F0F0F"/>
<path d="M38.5 71.3999C38.6 71.4999 38.6 71.5999 38.7 71.6999C38.7 71.7999 38.7 71.8999 38.6 71.9999C38.5 72.0999 38.4 72.1999 38.3 72.1999C38.2 72.1999 38.1 72.1999 38 72.0999C37.9 71.9999 37.8 71.8999 37.8 71.7999C37.8 71.6999 37.8 71.5999 37.9 71.4999C38 71.3999 38.1 71.2999 38.2 71.2999C38.3 71.2999 38.4 71.2999 38.5 71.3999Z" fill="#0F0F0F"/>
<path d="M38.6 1.60002C38.5 1.50002 38.5 1.40002 38.5 1.30002C38.5 1.20002 38.6 1.10002 38.6 1.00002C38.7 0.900024 38.8 0.900024 38.9 0.900024C39 0.900024 39.1 1.00002 39.2 1.00002C39.3 1.10002 39.3 1.20002 39.3 1.30002C39.3 1.40002 39.2 1.50002 39.2 1.60002C39.1 1.70002 39 1.70002 38.9 1.70002C38.7 1.70002 38.6 1.70002 38.6 1.60002Z" fill="#0F0F0F"/>
<path d="M41.6 71.4C41.6 71.5 41.6 71.6 41.6 71.7C41.6 71.8 41.5 71.9 41.4 71.9C41.3 71.9 41.2 72 41.1 72C41 72 40.9 72 40.8 71.9C40.7 71.8 40.7 71.8 40.6 71.7C40.6 71.6 40.6 71.5 40.6 71.4C40.6 71.3 40.7 71.2 40.8 71.2C40.9 71.1 41 71.1 41.1 71.1C41.2 71.1 41.4 71.1 41.5 71.2C41.5 71.1 41.6 71.3 41.6 71.4Z" fill="#0F0F0F"/>
<path d="M41.4 1.89998C41.3 1.79998 41.3 1.69998 41.3 1.49998C41.3 1.39998 41.4 1.29998 41.5 1.19998C41.6 1.09998 41.7 1.09998 41.8 1.09998C41.9 1.09998 42 1.19998 42.1 1.29998C42.2 1.39998 42.2 1.49998 42.2 1.69998C42.2 1.89998 42.1 1.89998 42 1.99998C41.9 2.09998 41.8 2.09998 41.6 2.09998C41.6 2.09998 41.6 2.09998 41.5 2.09998C41.6 2.09998 41.5 1.99998 41.4 1.89998Z" fill="#0F0F0F"/>
<path d="M44.3 70.5C44.4 70.6 44.5 70.7 44.5 70.8C44.5 70.9 44.5 71.1 44.4 71.2C44.3 71.3 44.2 71.4 44.1 71.4C44 71.4 43.8 71.4 43.7 71.3C43.6 71.2 43.5 71.1 43.5 71C43.5 70.9 43.5 70.7 43.6 70.6C43.7 70.5 43.8 70.4 43.9 70.4C44.1 70.4 44.2 70.5 44.3 70.5Z" fill="#0F0F0F"/>
<path d="M44.2 2.39998C44.1 2.29998 44.1 2.19998 44.1 1.99998C44.1 1.89998 44.2 1.79998 44.3 1.69998C44.4 1.59998 44.5 1.59998 44.7 1.59998C44.8 1.59998 44.9 1.69998 45 1.79998C45.1 1.89998 45.1 1.99998 45.1 2.09998C45.1 2.19998 45 2.29998 44.9 2.39998C44.8 2.49998 44.7 2.49998 44.6 2.49998H44.5C44.4 2.59998 44.3 2.59998 44.2 2.39998Z" fill="#0F0F0F"/>
<path d="M47.3 70C47.3 70.1 47.3 70.2 47.2 70.3C47.1 70.4 47 70.5 46.9 70.5C46.8 70.5 46.7 70.5 46.5 70.5C46.4 70.5 46.3 70.3 46.3 70.2C46.3 70.1 46.3 70.1 46.3 70C46.3 69.9 46.3 69.9 46.4 69.8C46.5 69.7 46.5 69.7 46.5 69.7C46.6 69.7 46.6 69.6 46.7 69.6H46.8C46.9 69.6 47 69.6 47.1 69.7C47.2 69.8 47.2 69.9 47.3 70Z" fill="#0F0F0F"/>
<path d="M47 3.2C47 3.1 47 3 47 2.9C47 2.8 47.1 2.7 47.2 2.6C47.3 2.6 47.3 2.6 47.4 2.5C47.5 2.5 47.5 2.5 47.6 2.5C47.7 2.5 47.8 2.6 47.9 2.7C47.9 2.8 48 2.9 47.9 3.1C47.9 3.2 47.8 3.3 47.7 3.4C47.6 3.5 47.5 3.5 47.3 3.4C47.2 3.4 47.1 3.3 47 3.2Z" fill="#0F0F0F"/>
<path d="M50 69C50 69.1 50 69.2 49.9 69.3C49.8 69.4 49.7 69.5 49.6 69.5C49.5 69.5 49.4 69.5 49.3 69.5C49.2 69.4 49.1 69.4 49.1 69.2C49.1 69.1 49.1 69 49.1 68.8C49.2 68.7 49.2 68.6 49.3 68.6H49.4C49.5 68.6 49.6 68.6 49.7 68.7C49.9 68.8 50 68.9 50 69Z" fill="#0F0F0F"/>
<path d="M49.7 4.29998C49.7 4.19998 49.7 4.09997 49.7 3.89997C49.7 3.69997 49.9 3.69998 50 3.59998C50.1 3.59998 50.2 3.59998 50.4 3.59998C50.5 3.69998 50.6 3.69997 50.7 3.89997C50.7 3.99997 50.7 4.19998 50.7 4.29998C50.7 4.39998 50.6 4.49998 50.5 4.49998C50.4 4.49998 50.3 4.59998 50.2 4.59998C50.1 4.59998 50.1 4.59998 50 4.59998C49.9 4.49998 49.8 4.39998 49.7 4.29998Z" fill="#0F0F0F"/>
<path d="M52.7 67.7999C52.7 68.0999 52.5 68.2999 52.2 68.2999C51.9 68.2999 51.7 68.0999 51.7 67.7999C51.7 67.4999 51.9 67.2999 52.2 67.2999C52.5 67.2999 52.7 67.4999 52.7 67.7999Z" fill="#0F0F0F"/>
<path d="M52.3 5.50002C52.3 5.40002 52.3 5.20003 52.3 5.10003C52.4 5.00003 52.5 4.90002 52.6 4.90002C52.7 4.90002 52.8 4.90002 53 4.90002C53.1 4.90002 53.1 5.00002 53.2 5.00002C53.2 5.00002 53.3 5.10002 53.3 5.20002C53.3 5.30002 53.3 5.30002 53.3 5.40002C53.3 5.50002 53.3 5.50003 53.2 5.60003C53.2 5.70003 53.1 5.70002 53 5.80002C52.9 5.90003 52.8 5.90002 52.8 5.90002C52.7 5.90002 52.6 5.90003 52.6 5.80002C52.4 5.70002 52.4 5.60002 52.3 5.50002Z" fill="#0F0F0F"/>
<path d="M55.2 66C55.3 66.1 55.3 66.2 55.3 66.4C55.3 66.5 55.2 66.6 55.1 66.7C55 66.7 54.9 66.8 54.8 66.8C54.7 66.8 54.6 66.8 54.6 66.7C54.5 66.7 54.5 66.6 54.4 66.5C54.3 66.4 54.3 66.3 54.3 66.1C54.3 66 54.4 65.9 54.5 65.8C54.5 65.8 54.6 65.7 54.7 65.7C54.8 65.7 54.8 65.7 54.9 65.7C55 65.7 55 65.7 55.1 65.8C55.1 65.9 55.2 66 55.2 66Z" fill="#0F0F0F"/>
<path d="M54.8 7.1C54.8 7 54.8 6.9 54.8 6.8C54.8 6.7 54.9 6.6 54.9 6.6C55 6.5 55.1 6.5 55.1 6.5C55.2 6.5 55.3 6.5 55.4 6.5C55.5 6.5 55.6 6.6 55.6 6.7C55.7 6.8 55.7 6.9 55.7 7C55.7 7.1 55.7 7.2 55.6 7.3C55.5 7.4 55.4 7.5 55.3 7.5C55.2 7.5 55 7.5 54.9 7.4C54.9 7.2 54.9 7.1 54.8 7.1Z" fill="#0F0F0F"/>
<path d="M57.6 52.5C57.9 53.7 57.8 54.6 57.4 55C57.2 55.2 56.8 55.4 56.5 55.5C56.2 55.6 55.8 55.5999 55.5 55.5999C54.8 55.4999 54.1 55.2 53.6 54.7C53.3 54.5 53.1 54.2 52.9 53.9C52.7 53.6 52.7 53.2 52.6 52.9C52.6 52.5 52.8 52.1 53.1 51.7C53.2 51.5 53.4 51.3999 53.6 51.2999C53.8 51.1999 54 51.2 54.2 51.2C54.9 51.2 55.5 51.3 56.2 51.4C56.5 51.4 56.8 51.5999 57.1 51.7999C57.3 51.8999 57.5 52.2 57.6 52.5Z" fill="#0F0F0F"/>
<path d="M57.7 64.5C57.7 64.6 57.7 64.6 57.7 64.7C57.7 64.8 57.7 64.8 57.6 64.9C57.6 65 57.5 65 57.5 65C57.4 65.1 57.3 65.1 57.2 65.1C57.1 65.1 57 65.1 57 65C56.9 65 56.9 64.9 56.8 64.9C56.7 64.8 56.7 64.7 56.7 64.5C56.7 64.4 56.8 64.3 56.9 64.2C57 64.2 57 64.1 57.1 64.1C57.2 64.1 57.2 64.1 57.3 64.1C57.4 64.1 57.4 64.1 57.5 64.2C57.6 64.2 57.6 64.3 57.6 64.3C57.6 64.3 57.7 64.4 57.7 64.5Z" fill="#0F0F0F"/>
<path d="M57.2 8.8C57.2 8.8 57.1 8.7 57.1 8.6C57.1 8.5 57.1 8.5 57.1 8.4C57.1 8.3 57.2 8.3 57.2 8.2L57.3 8.1C57.4 8.1 57.4 8 57.5 8C57.6 8 57.6 8 57.7 8C57.8 8 57.8 8 57.9 8.1C58 8.2 58.1 8.3 58.1 8.4C58.1 8.5 58.1 8.6 58 8.8C58 8.9 57.9 8.9 57.8 8.9C57.7 8.9 57.7 8.9 57.6 8.9C57.5 8.9 57.4 8.9 57.3 8.8C57.3 8.9 57.3 8.9 57.2 8.8Z" fill="#0F0F0F"/>
<path d="M59.5 39.8C59.4 39.6 59.3 39.4 59 39.3C58.8 39.2 58.6 39.1 58.3 39.1C57.6 39 57.2 38.8 57.3 37.9C57.3 36.8 57.1 35.7 56.6 34.8C56.1 33.8 55.4 33 54.5 32.4C52.5 31.1 50.2 30.3 47.8 30.3C46 30.1 44.2 29.9 42.4 29.6C43.3 29.1 44.1 28.7 44.8 28.2C47.1 26.9 49.1 25.2 50.8 23.2C51.6 22.2 52.1 21 52.3 19.7C52.5 18.4 52.3 17.1 51.7 15.9C50.4 13.4 48.1 12.8 45.6 12.9C43.7 12.9 41.8 13.4 40 14.2C35.9 16.2 32.1 18.6 28.7 21.5C27.3 22.6 25.9 23.8 24.4 25C24.6 24 24.8 23.2 24.9 22.3C25.4 19.7 25.1 17 23.8 14.6C23.5 14.1 23.2 13.6 22.7 13.3C22.2 12.9 21.7 12.7 21.2 12.6C21 12.5 20.8 12.6 20.6 12.6C20.4 12.7 20.2 12.8 20.1 13.1C19.9 13.3 19.9 13.5 19.9 13.8C19.9 14 19.9 14.3 20.1 14.5C20.3 14.8 20.6 15.1 20.9 15.4C21.4 15.8 21.8 16.4 22.1 17C22.4 17.6 22.5 18.3 22.5 18.9C22.7 22.5 21.3 25.6 20 28.8C19.9 29 19.7 29.2 19.5 29.4C18.3 30.6 17 31.7 15.8 33C13.7 35.4 11.6 37.7 10.5 40.8C9.99999 42.3 9.89997 43.8 10.3 45.3C10.7 46.8 11.5 48.2 12.6 49.2C13 49.5 13.5 49.7 14 49.7C14.5 49.7 15 49.5 15.4 49.1C16.1 48.4 16.6 47.5 17 46.6C21.7 36.8 28 28 35.8 20.4C38 18.1 40.9 16.6 44 16C45.8 15.7 47.9 17.7 48 19.3C48.1 21.6 46.9 23.1 45.4 24.4C43.2 26.3 40.6 27.9 37.9 29C36.5 29.6 35.2 30.4 34 31.3C33.4 31.8 32.9 32.4 32.7 33.2C32.5 33.9 32.4 34.7 32.6 35.5C32.8 36.2 33.1 36.7 33.7 37.1C34.2 37.5 34.9 37.7 35.5 37.7C39 37.9 42.6 38 46.1 38.3C47.6 38.4 49.1 38.4 50.2 39.7C50.2 39.8 50.1 39.8 50 39.9C49.9 39.9 49.8 40 49.8 40C42.4 41.3 35.3 43.5 28.4 46.5C27 47.1 25.8 48 24.7 49.1C22.9 51 22.8 53.9 25.5 55.4C28.5 57.1 31.6 56.8 34.8 56.3C40.5 55.4 45.5 52.8 50.3 49.5C52.8 47.8 54.8 45.5 56.3 42.9C56.7 42.2 57.1 41.8 58 41.9C58.3 42 58.5 42 58.8 41.9C59 41.8 59.3 41.7 59.5 41.4C59.6 41.2 59.7 41 59.8 40.8C59.7 40.2 59.6 40 59.5 39.8ZM50.9 42.9C50.5 44.2 49.7 45.4 48.6 46.2C44.3 49.7 39.5 52.4 34.1 53.3C33.4 53.4 32.8 53.4 32.1 53.5C31.4 53.5 30.6 53.5 29.9 53.2C29.6 53.1 29.4 53 29.2 52.8C29 52.6 28.8 52.4 28.7 52.1C28.6 51.8 28.5 51.5 28.6 51.3C28.6 51 28.7 50.7 28.8 50.5C29.1 49.8 29.6 49.2 30.3 48.8C33.4 46.8 36.8 45.9 40.2 44.8C43.4 43.8 46.7 42.9 50.1 42.3C51 41.9 51.1 42.2 50.9 42.9Z" fill="#0F0F0F"/>
<path d="M59.9 62.4C60 62.5 60 62.6 60 62.7C60 62.8 59.9 62.9 59.8 63C59.7 63.1 59.6 63.1 59.5 63.1C59.4 63.1 59.4 63.1 59.3 63C59.2 63 59.2 62.9 59.1 62.9C59 62.8 59 62.7 59 62.6C59 62.5 59.1 62.4 59.2 62.3C59.3 62.2 59.4 62.2 59.6 62.2C59.7 62.2 59.8 62.3 59.9 62.4Z" fill="#0F0F0F"/>
<path d="M60.2 10.1C60.3 10.2 60.3 10.3 60.3 10.3C60.3 10.4 60.3 10.5 60.3 10.6C60.3 10.7 60.2 10.8 60.1 10.8C60 10.8 59.9 10.9 59.8 10.9C59.7 10.9 59.6 10.9 59.5 10.8C59.5 10.8 59.4 10.7 59.4 10.6C59.4 10.5 59.4 10.5 59.4 10.4C59.4 10.3 59.4 10.3 59.4 10.2C59.4 10.1 59.5 10.1 59.5 10C59.5 10 59.6 9.90002 59.7 9.90002C59.8 9.90002 59.8 9.90002 59.9 9.90002C60 9.90002 60 9.90002 60.1 9.90002C60.1 10 60.2 10 60.2 10.1Z" fill="#0F0F0F"/>
<path d="M62.1 60.4C62.1 60.5 62.1 60.5 62.1 60.6C62.1 60.7 62.1 60.7 62.1 60.8C62.1 60.9 62.1 60.9 62 61C61.9 61.1 61.8 61.1 61.6 61.1C61.5 61.1 61.4 61.1 61.3 61C61.3 61 61.2 60.9 61.2 60.8C61.2 60.7 61.2 60.7 61.2 60.6C61.2 60.5 61.2 60.5 61.2 60.4C61.2 60.3 61.3 60.3 61.3 60.2L61.4 60.1C61.5 60.1 61.5 60.1 61.6 60.1C61.7 60.1 61.7 60.1 61.8 60.1C61.9 60.1 61.9 60.2 62 60.2C62 60.3 62.1 60.4 62.1 60.4Z" fill="#0F0F0F"/>
<path d="M62.3 12.2C62.4 12.3 62.4 12.4 62.4 12.5C62.4 12.6 62.3 12.7 62.3 12.8C62.2 12.9 62.1 12.9 62 12.9C61.9 12.9 61.8 12.9 61.7 12.8C61.6 12.8 61.6 12.7 61.5 12.6C61.5 12.5 61.4 12.4 61.5 12.3C61.5 12.2 61.6 12.1 61.6 12.1C61.7 12 61.8 12 61.9 12C62.1 12 62.2 12.1 62.3 12.2Z" fill="#0F0F0F"/>
<path d="M63.9 57.9999C64 58.0999 64.1 58.1999 64.1 58.2999C64.1 58.3999 64.1 58.5999 64 58.6999C64 58.6999 63.9 58.7999 63.8 58.7999C63.7 58.7999 63.7 58.7999 63.6 58.7999C63.5 58.7999 63.4 58.7999 63.3 58.6999C63.2 58.5999 63.1 58.4999 63.1 58.3999C63.1 58.2999 63.1 58.0999 63.2 57.9999C63.2 57.9999 63.3 57.8999 63.4 57.8999C63.5 57.8999 63.5 57.8999 63.6 57.7999C63.7 57.7999 63.7 57.7999 63.8 57.7999C63.8 57.9999 63.8 57.9999 63.9 57.9999Z" fill="#0F0F0F"/>
<path d="M64.2 14.3999C64.3 14.4999 64.3 14.5999 64.3 14.7999C64.3 14.9999 64.2 14.9999 64.1 15.0999C64 15.1999 63.9 15.1999 63.8 15.1999C63.7 15.1999 63.6 15.1999 63.6 15.1999C63.5 15.1999 63.5 15.0999 63.4 15.0999C63.3 14.9999 63.3 14.8999 63.3 14.6999C63.3 14.5999 63.4 14.4999 63.5 14.3999C63.6 14.2999 63.7 14.2999 63.9 14.2999C64 14.2999 64.1 14.2999 64.2 14.3999Z" fill="#0F0F0F"/>
<path d="M65.8 55.9C65.8 56 65.8 56.1 65.7 56.3C65.7 56.4 65.6 56.4 65.5 56.5C65.4 56.5 65.4 56.6 65.3 56.6C65.2 56.6 65.1 56.6 65 56.5L64.9 56.4C64.9 56.3 64.8 56.3 64.8 56.2C64.8 56.1 64.8 56.1 64.8 56C64.8 55.9 64.8 55.9 64.9 55.8C64.9 55.7 65 55.7 65 55.7C65.1 55.7 65.1 55.6 65.2 55.6C65.3 55.6 65.3 55.6 65.4 55.6C65.5 55.6 65.5 55.6 65.6 55.7C65.7 55.7 65.8 55.8 65.8 55.9Z" fill="#0F0F0F"/>
<path d="M65.9 16.8C65.9 16.9 66 16.9 66 17C66 17.1 66 17.1 66 17.2C66 17.3 66 17.3 65.9 17.4C65.9 17.5 65.8 17.5 65.8 17.5C65.7 17.5 65.6 17.6 65.5 17.6C65.4 17.6 65.3 17.6 65.3 17.5C65.2 17.5 65.2 17.4 65.1 17.3C65 17.2 65 17.1 65 16.9C65 16.8 65.1 16.7 65.2 16.6C65.2 16.6 65.3 16.5 65.4 16.5C65.5 16.5 65.5 16.5 65.6 16.5C65.7 16.5 65.7 16.5 65.8 16.6C65.9 16.7 65.9 16.8 65.9 16.8Z" fill="#0F0F0F"/>
<path d="M67.4 53.3C67.4 53.4 67.4 53.4 67.4 53.5C67.4 53.6 67.4 53.6 67.3 53.7C67.3 53.8 67.2 53.8 67.2 53.9C67.2 53.9 67.1 54 67 54C66.9 54 66.9 54 66.8 54C66.7 54 66.7 54 66.6 53.9C66.5 53.9 66.5 53.8 66.4 53.8C66.4 53.7 66.3 53.7 66.3 53.6C66.3 53.5 66.3 53.5 66.3 53.4C66.3 53.3 66.3 53.3 66.4 53.2C66.4 53.1 66.5 53.1 66.5 53.1C66.6 53.1 66.6 53 66.7 53C66.8 53 66.8 53 66.9 53C67 53 67 53 67.1 53.1C67.2 53.1 67.2 53.2 67.3 53.2C67.3 53.2 67.3 53.3 67.4 53.3Z" fill="#0F0F0F"/>
<path d="M67.5 19.4C67.6 19.5 67.6 19.6 67.5 19.8C67.5 19.9 67.4 20 67.3 20.1C67.2 20.1 67.1 20.2 67.1 20.2C67 20.2 66.9 20.2 66.9 20.1C66.8 20.1 66.8 20 66.7 19.9C66.7 19.8 66.6 19.8 66.6 19.7C66.6 19.6 66.6 19.6 66.6 19.5C66.6 19.4 66.7 19.4 66.7 19.3L66.8 19.2C66.9 19.1 67 19.1 67.2 19.2C67.3 19.2 67.3 19.2 67.4 19.3C67.4 19.3 67.4 19.3 67.5 19.4Z" fill="#0F0F0F"/>
<path d="M68.6 50.5999C68.6 50.6999 68.7 50.7999 68.6 50.8999C68.6 50.9999 68.5 51.0999 68.4 51.1999C68.3 51.2999 68.2 51.2999 68.1 51.2999C68 51.2999 68 51.2999 67.9 51.2999C67.8 51.1999 67.7 51.0999 67.6 50.9999C67.6 50.8999 67.6 50.7999 67.6 50.5999C67.7 50.4999 67.8 50.3999 67.9 50.2999C68 50.2999 68.2 50.2999 68.3 50.2999C68.5 50.3999 68.6 50.4999 68.6 50.5999Z" fill="#0F0F0F"/>
<path d="M68.8 21.9999C68.9 22.0999 68.9 22.1999 68.8 22.3999C68.7 22.4999 68.7 22.5999 68.5 22.6999C68.4 22.6999 68.4 22.6999 68.3 22.6999C68.2 22.6999 68.1 22.6999 68 22.5999C67.9 22.4999 67.8 22.3999 67.8 22.2999C67.8 22.1999 67.8 22.0999 67.8 21.9999C67.8 21.8999 67.9 21.7999 68 21.7999C68 21.7999 68.1 21.7999 68.2 21.7999C68.3 21.7999 68.3 21.7999 68.4 21.7999C68.5 21.7999 68.5 21.8999 68.6 21.8999C68.7 21.8999 68.7 21.9999 68.8 21.9999Z" fill="#0F0F0F"/>
<path d="M69.7 47.8C69.8 47.9 69.8 48 69.8 48.1C69.8 48.2 69.7 48.3 69.6 48.4C69.5 48.5 69.4 48.5 69.3 48.5H69.2C69.1 48.5 69.1 48.4 69 48.4C68.9 48.4 68.9 48.3 68.9 48.2C68.9 48.1 68.8 48.1 68.8 48C68.8 47.9 68.8 47.9 68.8 47.8C68.8 47.7 68.9 47.7 68.9 47.6C69 47.6 69 47.5 69.1 47.5C69.2 47.5 69.2 47.5 69.3 47.5C69.4 47.5 69.4 47.5 69.5 47.5C69.6 47.6 69.7 47.7 69.7 47.8Z" fill="#0F0F0F"/>
<path d="M69 25.3C68.9 25.2 68.8 25.1 68.8 25C68.8 24.9 68.8 24.8 68.9 24.7C69 24.6 69.1 24.5 69.2 24.5C69.3 24.5 69.4 24.5 69.5 24.6C69.6 24.7 69.7 24.8 69.7 24.9C69.7 25 69.7 25.1 69.6 25.2C69.5 25.3 69.5 25.4 69.3 25.4C69.2 25.4 69.2 25.4 69.1 25.4C69.3 25.4 69.1 25.4 69 25.3Z" fill="#0F0F0F"/>
<path d="M70.6 45C70.7 45.1 70.7 45.2 70.7 45.3C70.7 45.4 70.6 45.5 70.5 45.6C70.4 45.7 70.3 45.7 70.2 45.7H70.1C70 45.7 70 45.6 69.9 45.6C69.8 45.6 69.8 45.5 69.8 45.4C69.8 45.4 69.7 45.3 69.7 45.2C69.7 45.1 69.7 45.1 69.7 45C69.7 44.9 69.8 44.9 69.8 44.8L69.9 44.7C70 44.7 70 44.7 70.1 44.6C70.2 44.6 70.2 44.6 70.3 44.6C70.4 44.8 70.5 44.9 70.6 45Z" fill="#0F0F0F"/>
<path d="M69.7 27.5999C69.7 27.4999 69.8 27.3999 69.9 27.3999C70 27.2999 70.1 27.2999 70.2 27.2999C70.3 27.2999 70.4 27.2999 70.5 27.3999C70.6 27.3999 70.7 27.4999 70.7 27.5999C70.7 27.6999 70.7 27.7999 70.7 27.8999C70.7 27.9999 70.6 28.0999 70.6 28.1999C70.5 28.2999 70.5 28.2999 70.4 28.2999H70.3C70.2 28.2999 70.1 28.2999 70 28.1999C69.9 28.0999 69.8 27.9999 69.8 27.8999C69.7 27.7999 69.7 27.6999 69.7 27.5999Z" fill="#0F0F0F"/>
<path d="M71.2 42C71.3 42.1 71.3 42.2 71.3 42.4C71.3 42.5 71.2 42.6 71.1 42.7C71 42.8 70.9 42.8 70.8 42.8H70.7C70.6 42.8 70.5 42.7 70.4 42.6C70.3 42.5 70.3 42.4 70.3 42.3C70.3 42.2 70.4 42.1 70.5 42C70.6 41.9 70.7 41.9 70.8 41.9C71 41.9 71.1 41.9 71.2 42Z" fill="#0F0F0F"/>
<path d="M70.5 30.2C70.6 30.2 70.6 30.2 70.7 30.1C70.8 30.1 71 30.1 71.1 30.2C71.2 30.3 71.3 30.4 71.3 30.5C71.3 30.6 71.3 30.6 71.3 30.7C71.3 30.8 71.3 30.8 71.2 30.9L71.1 31C71 31 71 31 70.9 31.1H70.8C70.7 31.1 70.6 31.1 70.5 31C70.4 30.9 70.4 30.8 70.3 30.7C70.3 30.6 70.3 30.6 70.3 30.5C70.3 30.4 70.3 30.4 70.4 30.3L70.5 30.2Z" fill="#0F0F0F"/>
<path d="M71.6 39.2C71.6 39.3 71.6 39.3 71.6 39.4C71.6 39.5 71.5 39.6 71.4 39.7C71.3 39.8 71.2 39.8 71.1 39.8H71C70.9 39.8 70.9 39.8 70.8 39.8C70.7 39.8 70.7 39.7 70.7 39.7C70.7 39.6 70.6 39.6 70.6 39.5C70.6 39.4 70.6 39.4 70.6 39.3C70.6 39.2 70.6 39.2 70.6 39.1C70.6 39 70.7 39 70.7 39C70.8 39 70.8 38.9 70.9 38.9C71 38.9 71 38.9 71.1 38.9C71.2 38.9 71.2 38.9 71.3 38.9C71.4 38.9 71.4 39 71.5 39C71.6 39.1 71.6 39.2 71.6 39.2Z" fill="#0F0F0F"/>
<path d="M71.2 33C71.3 33 71.4 33 71.5 33.1C71.6 33.2 71.6 33.2 71.7 33.3C71.7 33.4 71.7 33.5 71.7 33.6C71.7 33.7 71.6 33.8 71.5 33.8C71.4 33.9 71.3 33.9 71.2 33.9C71.1 33.9 71 33.9 70.9 33.8C70.8 33.7 70.7 33.6 70.7 33.5C70.7 33.4 70.7 33.3 70.8 33.2C70.9 33.1 70.9 33 71 33C71 33 71.1 33 71.2 33Z" fill="#0F0F0F"/>
<path d="M71.7 36.0999C71.8 36.1999 71.8 36.2999 71.8 36.3999C71.8 36.4999 71.8 36.5999 71.7 36.6999C71.7 36.7999 71.6 36.7999 71.5 36.8999C71.4 36.9999 71.3 36.8999 71.2 36.8999C71.1 36.8999 71 36.7999 71 36.7999C70.9 36.6999 70.9 36.5999 70.9 36.5999C70.9 36.4999 70.9 36.3999 70.9 36.2999C70.9 36.1999 71 36.0999 71.1 36.0999C71.2 36.0999 71.3 35.9999 71.4 35.9999C71.4 35.8999 71.6 35.9999 71.7 36.0999Z" fill="#0F0F0F"/>
<path d="M55.3 66.4C55.3 66.5 55.2 66.6 55.1 66.7C55 66.7 54.9 66.8 54.8 66.8C54.7 66.8 54.6 66.8 54.6 66.7C54.5 66.7 54.5 66.6 54.4 66.5C54.3 66.4 54.3 66.3 54.3 66.1C54.3 66 54.4 65.9 54.5 65.8C54.5 65.8 54.6 65.7 54.7 65.7C54.8 65.7 54.8 65.7 54.9 65.7C55 65.7 55 65.7 55.1 65.8C55.2 65.8 55.2 65.9 55.2 65.9C55.3 66.1 55.3 66.3 55.3 66.4Z" fill="white"/>
<path d="M57.7 64.7C57.7 64.8 57.7 64.8 57.6 64.9C57.6 65 57.5 65 57.5 65C57.4 65.1 57.3 65.1 57.2 65.1C57.1 65.1 57 65.1 57 65C56.9 65 56.9 64.9 56.8 64.9C56.7 64.8 56.7 64.7 56.7 64.5C56.7 64.4 56.8 64.3 56.9 64.2C57 64.2 57 64.1 57.1 64.1C57.2 64.1 57.2 64.1 57.3 64.1C57.4 64.1 57.4 64.1 57.5 64.2C57.6 64.2 57.6 64.3 57.6 64.3C57.6 64.3 57.7 64.4 57.7 64.5C57.7 64.5 57.7 64.6 57.7 64.7Z" fill="white"/>
<path d="M60 62.7C60 62.8 59.9 62.9 59.8 63C59.7 63.1 59.6 63.1 59.5 63.1C59.4 63.1 59.4 63.1 59.3 63C59.2 63 59.2 62.9 59.1 62.9C59 62.8 59 62.7 59 62.6C59 62.5 59.1 62.4 59.2 62.3C59.3 62.2 59.4 62.2 59.6 62.2C59.7 62.2 59.8 62.3 59.9 62.4C60 62.5 60 62.6 60 62.7Z" fill="white"/>
<path d="M71.6 39.4C71.6 39.5 71.5 39.6 71.4 39.7C71.3 39.8 71.2 39.8 71.1 39.8H71C70.9 39.8 70.9 39.8 70.8 39.8C70.7 39.8 70.7 39.7 70.7 39.7C70.7 39.6 70.6 39.6 70.6 39.5C70.6 39.4 70.6 39.4 70.6 39.3C70.6 39.2 70.6 39.2 70.6 39.1C70.6 39 70.7 39 70.7 39C70.8 39 70.8 38.9 70.9 38.9C71 38.9 71 38.9 71.1 38.9C71.2 38.9 71.2 38.9 71.3 38.9C71.4 38.9 71.4 39 71.5 39C71.5 39 71.6 39.1 71.6 39.2C71.6 39.3 71.6 39.4 71.6 39.4Z" fill="white"/>
<path d="M67.4 53.5C67.4 53.6 67.4 53.6 67.3 53.7C67.3 53.8 67.2 53.8 67.2 53.9C67.2 53.9 67.1 54 67 54C66.9 54 66.9 54 66.8 54C66.7 54 66.7 54 66.6 53.9C66.5 53.9 66.5 53.8 66.4 53.8C66.4 53.7 66.3 53.7 66.3 53.6C66.3 53.5 66.3 53.5 66.3 53.4C66.3 53.3 66.3 53.3 66.4 53.2C66.4 53.1 66.5 53.1 66.5 53.1C66.6 53.1 66.6 53 66.7 53C66.8 53 66.8 53 66.9 53C67 53 67 53 67.1 53.1C67.2 53.1 67.2 53.2 67.3 53.2C67.3 53.2 67.4 53.3 67.4 53.4C67.4 53.5 67.4 53.5 67.4 53.5Z" fill="white"/>
<path d="M68.7 50.8999C68.7 50.9999 68.6 51.0999 68.5 51.1999C68.4 51.2999 68.3 51.2999 68.2 51.2999C68.1 51.2999 68.1 51.2999 68 51.2999C67.9 51.1999 67.8 51.0999 67.7 50.9999C67.7 50.8999 67.7 50.7999 67.7 50.5999C67.8 50.4999 67.9 50.3999 68 50.2999C68.1 50.2999 68.3 50.2999 68.4 50.2999C68.5 50.2999 68.6 50.3999 68.6 50.4999C68.7 50.6999 68.7 50.7999 68.7 50.8999Z" fill="white"/>
<path d="M70.7 45.3C70.7 45.4 70.6 45.5 70.5 45.6C70.4 45.7 70.3 45.7 70.2 45.7H70.1C70 45.7 70 45.6 69.9 45.6C69.8 45.6 69.8 45.5 69.8 45.4C69.8 45.4 69.7 45.3 69.7 45.2C69.7 45.1 69.7 45.1 69.7 45C69.7 44.9 69.8 44.9 69.8 44.8L69.9 44.7C70 44.7 70 44.7 70.1 44.6C70.2 44.6 70.2 44.6 70.3 44.6C70.4 44.6 70.5 44.7 70.6 44.8C70.6 45.1 70.7 45.2 70.7 45.3Z" fill="white"/>
<path d="M65.8 55.9C65.8 56 65.8 56.1 65.7 56.3C65.7 56.4 65.6 56.4 65.5 56.5C65.4 56.5 65.4 56.6 65.3 56.6C65.2 56.6 65.1 56.6 65 56.5L64.9 56.4C64.9 56.3 64.8 56.3 64.8 56.2C64.8 56.1 64.8 56.1 64.8 56C64.8 55.9 64.8 55.9 64.9 55.8C64.9 55.7 65 55.7 65 55.7C65.1 55.7 65.1 55.6 65.2 55.6C65.3 55.6 65.3 55.6 65.4 55.6C65.5 55.6 65.5 55.6 65.6 55.7C65.7 55.7 65.8 55.8 65.8 55.9Z" fill="white"/>
<path d="M69.8 48.2C69.8 48.3 69.7 48.4 69.6 48.5C69.5 48.6 69.4 48.6 69.3 48.6H69.2C69.1 48.6 69.1 48.5 69 48.5C68.9 48.5 68.9 48.4 68.9 48.3C68.9 48.2 68.8 48.2 68.8 48.1C68.8 48 68.8 48 68.8 47.9C68.8 47.8 68.9 47.8 68.9 47.7C69 47.7 69 47.6 69.1 47.6C69.2 47.6 69.2 47.6 69.3 47.6C69.4 47.6 69.4 47.6 69.5 47.6C69.6 47.6 69.7 47.7 69.8 47.8C69.8 47.9 69.8 48 69.8 48.2Z" fill="white"/>
<path d="M71.3 42.4C71.3 42.5 71.2 42.6 71.1 42.7C71 42.8 70.9 42.8 70.8 42.8H70.7C70.6 42.8 70.5 42.7 70.4 42.6C70.3 42.5 70.3 42.4 70.3 42.3C70.3 42.2 70.4 42.1 70.5 42C70.6 41.9 70.7 41.9 70.8 41.9C70.9 41.9 71 42 71.1 42.1C71.3 42.2 71.3 42.3 71.3 42.4Z" fill="white"/>
<path d="M64.1 58.2999C64.1 58.3999 64.1 58.5999 64 58.6999C64 58.6999 63.9 58.7999 63.8 58.7999C63.7 58.7999 63.7 58.7999 63.6 58.7999C63.5 58.7999 63.4 58.7999 63.3 58.6999C63.2 58.5999 63.1 58.4999 63.1 58.3999C63.1 58.2999 63.1 58.0999 63.2 57.9999C63.2 57.9999 63.3 57.8999 63.4 57.8999C63.5 57.8999 63.5 57.8999 63.6 57.7999C63.7 57.7999 63.7 57.7999 63.8 57.7999C63.9 57.7999 63.9 57.7999 64 57.8999C64 58.0999 64 58.1999 64.1 58.2999Z" fill="white"/>
<path d="M62.1 60.6C62.1 60.7 62.1 60.7 62.1 60.8C62.1 60.9 62.1 60.9 62 61C61.9 61.1 61.8 61.1 61.6 61.1C61.5 61.1 61.4 61.1 61.3 61C61.3 61 61.2 60.9 61.2 60.8C61.2 60.7 61.2 60.7 61.2 60.6C61.2 60.5 61.2 60.5 61.2 60.4C61.2 60.3 61.3 60.3 61.3 60.2L61.4 60.1C61.5 60.1 61.5 60.1 61.6 60.1C61.7 60.1 61.7 60.1 61.8 60.1C61.9 60.1 61.9 60.2 62 60.2C62 60.2 62.1 60.3 62.1 60.4C62.1 60.5 62.1 60.6 62.1 60.6Z" fill="white"/>
<path d="M39.4 1.19993C39.4 1.29993 39.3 1.39993 39.3 1.49993C39.2 1.59993 39.1 1.59993 39 1.59993C38.9 1.59993 38.8 1.59993 38.7 1.49993C38.6 1.39993 38.6 1.29993 38.6 1.19993C38.6 1.09993 38.7 0.999927 38.7 0.899927C38.8 0.799927 38.9 0.799927 39 0.799927C39.1 0.799927 39.2 0.899927 39.3 0.899927C39.3 0.999927 39.4 1.09993 39.4 1.19993Z" fill="white"/>
<path d="M12.6 10.5C12.6 10.6 12.5 10.7 12.5 10.8C12.4 10.9 12.3 10.9 12.2 10.9C12.1 10.9 12 10.9 11.9 10.8C11.8 10.7 11.8 10.7 11.7 10.6C11.7 10.5 11.6 10.4 11.7 10.3C11.7 10.2 11.8 10.1 11.8 10.1C11.9 10 12 10 12.1 10C12.2 10 12.3 10.1 12.4 10.2C12.5 10.2 12.6 10.3 12.6 10.5Z" fill="white"/>
<path d="M25 3C25 3.1 25 3.1 25 3.2C25 3.2 24.9 3.3 24.9 3.4C24.9 3.4 24.8 3.5 24.7 3.5C24.6 3.5 24.6 3.5 24.5 3.5C24.4 3.5 24.3 3.5 24.2 3.4C24.1 3.3 24.1 3.3 24 3.2C24 3.1 24 3.1 24 3C24 2.9 24 2.9 24 2.8C24 2.7 24.1 2.7 24.1 2.6C24.2 2.6 24.2 2.5 24.3 2.5C24.4 2.5 24.5 2.5 24.7 2.5C24.8 2.5 24.9 2.6 24.9 2.8C25 2.9 25 3 25 3Z" fill="white"/>
<path d="M33.6 1.19995C33.6 1.29995 33.6 1.49995 33.5 1.59995C33.4 1.69995 33.3 1.69995 33.2 1.69995H33.1C33 1.69995 32.9 1.59995 32.8 1.59995C32.7 1.49995 32.7 1.39995 32.7 1.19995C32.7 1.09995 32.8 0.999951 32.9 0.899951C33 0.799951 33.1 0.699951 33.2 0.699951C33.3 0.699951 33.4 0.799951 33.5 0.899951C33.5 0.999951 33.6 1.09995 33.6 1.19995Z" fill="white"/>
<path d="M30.7 1.49995C30.7 1.59995 30.7 1.59995 30.7 1.69995C30.7 1.79995 30.7 1.79995 30.6 1.89995C30.6 1.99995 30.5 1.99995 30.5 1.99995C30.4 1.99995 30.4 2.09995 30.3 2.09995H30.2C30.1 2.09995 30 2.09995 29.9 1.99995C29.8 1.89995 29.8 1.79995 29.7 1.69995C29.7 1.59995 29.7 1.49995 29.8 1.39995C29.9 1.29995 30 1.19995 30.1 1.19995C30.2 1.19995 30.4 1.19995 30.5 1.29995C30.6 1.29995 30.6 1.39995 30.7 1.49995Z" fill="white"/>
<path d="M27.7 2.39995C27.6 2.49995 27.5 2.59995 27.4 2.59995H27.3C27.2 2.59995 27.1 2.59995 27 2.49995C26.9 2.39995 26.8 2.29995 26.8 2.19995C26.8 2.09995 26.8 1.99995 26.9 1.89995C27 1.79995 27.1 1.69995 27.2 1.69995C27.3 1.69995 27.4 1.69995 27.5 1.79995C27.6 1.89995 27.7 1.99995 27.7 2.09995C27.8 2.19995 27.8 2.29995 27.7 2.39995Z" fill="white"/>
<path d="M22.3 4.29999C22.2 4.39999 22.2 4.49999 22 4.59999C21.9 4.59999 21.9 4.59999 21.8 4.59999C21.7 4.59999 21.6 4.59999 21.5 4.49999C21.4 4.49999 21.3 4.39999 21.3 4.29999C21.2 4.19999 21.2 3.99999 21.3 3.89999C21.4 3.79999 21.4 3.69999 21.6 3.59999C21.8 3.49999 21.8 3.59999 22 3.59999C22.1 3.59999 22.2 3.79999 22.3 3.89999C22.3 3.99999 22.3 4.09999 22.3 4.29999Z" fill="white"/>
<path d="M14.8 8.59998C14.8 8.69998 14.8 8.69998 14.7 8.79998L14.6 8.89997C14.5 8.99997 14.4 8.99998 14.3 8.99998C14.2 8.99998 14.1 8.99997 14 8.89997C13.9 8.79997 13.9 8.79998 13.8 8.69998C13.8 8.59998 13.8 8.49997 13.8 8.39997C13.8 8.29997 13.9 8.19998 14 8.19998C14 8.19998 14.1 8.09998 14.2 8.09998C14.3 8.09998 14.3 8.09998 14.4 8.09998C14.5 8.09998 14.5 8.09998 14.6 8.19998C14.7 8.19998 14.7 8.29998 14.8 8.29998C14.8 8.29998 14.9 8.39998 14.9 8.49998C14.8 8.49998 14.8 8.59998 14.8 8.59998Z" fill="white"/>
<path d="M1.70001 30.6C1.70001 30.7 1.6 30.8 1.5 30.9C1.4 31 1.30001 31 1.20001 31H1.09998C0.999976 31 0.899988 30.9 0.799988 30.8C0.699988 30.7 0.700012 30.6 0.700012 30.4C0.700012 30.3 0.800024 30.2 0.900024 30.1C1.00002 30 1.09999 30 1.29999 30C1.39999 30 1.49998 30.1 1.59998 30.2C1.69998 30.4 1.70001 30.5 1.70001 30.6Z" fill="white"/>
<path d="M2.29999 27.6999C2.29999 27.7999 2.29999 27.7999 2.29999 27.8999C2.29999 27.9999 2.19998 28.0999 2.09998 28.1999C1.99998 28.2999 1.89999 28.2999 1.79999 28.2999H1.70001C1.60001 28.2999 1.50002 28.1999 1.40002 28.0999C1.30002 27.9999 1.29999 27.8999 1.29999 27.6999C1.29999 27.5999 1.30002 27.5999 1.40002 27.4999C1.40002 27.4999 1.49998 27.3999 1.59998 27.3999C1.59998 27.3999 1.69999 27.2999 1.79999 27.2999C1.89999 27.2999 1.9 27.2999 2 27.2999C2.1 27.2999 2.10001 27.2999 2.20001 27.3999C2.30001 27.3999 2.29999 27.4999 2.29999 27.4999C2.19999 27.4999 2.19999 27.5999 2.29999 27.6999Z" fill="white"/>
<path d="M19.7 5.49995C19.7 5.59995 19.6 5.69995 19.5 5.79995C19.4 5.89995 19.4 5.89995 19.3 5.89995C19.2 5.89995 19.1 5.89995 19 5.79995C18.9 5.79995 18.9 5.69995 18.8 5.59995C18.7 5.49995 18.7 5.39995 18.8 5.19995C18.8 5.09995 18.9 4.99995 19 4.89995C19.1 4.79995 19.2 4.79995 19.4 4.89995C19.5 4.89995 19.6 4.99995 19.7 5.09995C19.7 5.19995 19.7 5.39995 19.7 5.49995Z" fill="white"/>
<path d="M17.2 6.80002C17.2 6.90003 17.2 6.90002 17.2 7.00002C17.2 7.10002 17.2 7.10002 17.1 7.20002L17 7.30002C16.9 7.40003 16.8 7.40002 16.7 7.40002C16.6 7.40002 16.5 7.40003 16.5 7.30002C16.4 7.30002 16.4 7.20002 16.3 7.20002C16.2 7.10002 16.2 7.00002 16.2 6.80002C16.2 6.70002 16.3 6.60002 16.4 6.50002C16.4 6.50002 16.5 6.40002 16.6 6.40002C16.7 6.40002 16.7 6.40002 16.8 6.40002C16.9 6.40002 16.9 6.40002 17 6.50002C17.1 6.50002 17.1 6.60003 17.1 6.60003C17.1 6.60003 17.1 6.70002 17.2 6.80002Z" fill="white"/>
<path d="M10.5 12.5C10.5 12.6 10.5 12.7 10.4 12.7C10.4 12.8 10.3 12.8 10.2 12.9C10.1 12.9 10 13 10 13C9.9 13 9.80001 13 9.70001 12.9C9.60001 12.8 9.59998 12.7 9.59998 12.6C9.59998 12.5 9.60001 12.3 9.70001 12.2C9.70001 12.1 9.80002 12.1 9.90002 12.1C10 12.1 10.1 12.1 10.1 12.1C10.2 12.1 10.3 12.1 10.3 12.2C10.4 12.2 10.4 12.3 10.5 12.4V12.5Z" fill="white"/>
<path d="M69.8 25.2C69.7 25.3 69.7 25.4 69.5 25.4C69.4 25.4 69.4 25.4 69.3 25.4C69.2 25.4 69.1 25.4 69 25.3C68.9 25.2 68.8 25.1 68.8 25C68.8 24.9 68.8 24.8 68.9 24.7C69 24.6 69.1 24.5 69.2 24.5C69.3 24.5 69.4 24.5 69.5 24.6C69.6 24.7 69.7 24.8 69.7 24.9C69.7 25 69.9 25.1 69.8 25.2Z" fill="white"/>
<path d="M58.2 8.50002C58.2 8.60002 58.2 8.70002 58.1 8.90002C58.1 9.00002 58 9.00002 57.9 9.00002C57.8 9.00002 57.8 9.00002 57.7 9.00002C57.6 9.00002 57.5 9.00002 57.4 8.90002C57.3 8.90002 57.3 8.80002 57.3 8.70002C57.3 8.70002 57.2 8.60002 57.2 8.50002C57.2 8.40002 57.2 8.40003 57.2 8.30002C57.2 8.20002 57.3 8.20003 57.3 8.10003L57.4 8.00002C57.5 8.00002 57.5 7.90002 57.6 7.90002C57.7 7.90002 57.7 7.90002 57.8 7.90002C57.9 7.90002 57.9 7.90002 58 8.00002C58.1 8.30002 58.1 8.40002 58.2 8.50002Z" fill="white"/>
<path d="M70.7 27.7999C70.7 27.8999 70.6 27.9999 70.6 28.0999C70.5 28.1999 70.5 28.2 70.4 28.2H70.3C70.2 28.2 70.1 28.1999 70 28.0999C69.9 27.9999 69.8 27.8999 69.8 27.7999C69.8 27.6999 69.8 27.6 69.8 27.5C69.8 27.4 69.9 27.2999 70 27.2999C70.1 27.1999 70.2 27.2 70.3 27.2C70.4 27.2 70.5 27.1999 70.6 27.2999C70.7 27.2999 70.8 27.4 70.8 27.5C70.7 27.6 70.7 27.6999 70.7 27.7999Z" fill="white"/>
<path d="M71.3 30.5C71.3 30.6 71.3 30.6 71.3 30.7C71.3 30.8 71.3 30.8 71.2 30.9L71.1 31C71 31 71 31 70.9 31.1H70.8C70.7 31.1 70.6 31.1 70.5 31C70.4 30.9 70.4 30.8 70.3 30.7C70.3 30.6 70.3 30.6 70.3 30.5C70.3 30.4 70.3 30.4 70.4 30.3L70.5 30.2C70.6 30.2 70.6 30.2 70.7 30.1C70.8 30.1 71 30.1 71.1 30.2C71.2 30.3 71.3 30.4 71.3 30.5Z" fill="white"/>
<path d="M71.6 33.6C71.6 33.7 71.5 33.8 71.4 33.8C71.3 33.9 71.2 33.9 71.1 33.9C71 33.9 70.9 33.9 70.8 33.8C70.7 33.7 70.6 33.6 70.6 33.5C70.6 33.4 70.6 33.3 70.7 33.2C70.8 33.1 70.8 33 70.9 33C71 33 71.1 32.9 71.2 33C71.3 33 71.4 33 71.5 33.1C71.6 33.2 71.6 33.2 71.7 33.3C71.7 33.5 71.6 33.6 71.6 33.6Z" fill="white"/>
<path d="M45.1 2.19998C45.1 2.29998 45 2.39998 44.9 2.49998C44.8 2.59998 44.7 2.59998 44.6 2.59998H44.5C44.4 2.59998 44.3 2.49998 44.2 2.39998C44.1 2.29998 44.1 2.19998 44.1 1.99998C44.1 1.89998 44.2 1.79998 44.3 1.69998C44.4 1.59998 44.5 1.59998 44.7 1.59998C44.8 1.59998 44.9 1.69998 45 1.79998C45.1 1.99998 45.2 2.09998 45.1 2.19998Z" fill="white"/>
<path d="M42.3 1.6C42.3 1.7 42.2 1.8 42.1 1.9C42 2 41.9 2 41.7 2C41.7 2 41.7 2 41.6 2C41.5 2 41.4 1.9 41.3 1.8C41.2 1.7 41.2 1.6 41.2 1.4C41.2 1.3 41.3 1.2 41.4 1.1C41.5 1 41.6 1 41.7 1C41.8 1 41.9 1.1 42 1.2C42.3 1.4 42.3 1.5 42.3 1.6Z" fill="white"/>
<path d="M47.9 3.2C47.9 3.3 47.8 3.4 47.7 3.5C47.6 3.6 47.5 3.6 47.3 3.5C47.2 3.5 47.1 3.4 47 3.3C47 3.1 47 3 47 2.9C47 2.8 47.1 2.7 47.2 2.6C47.3 2.6 47.3 2.6 47.4 2.5C47.5 2.5 47.5 2.5 47.6 2.5C47.7 2.5 47.8 2.6 47.9 2.7C47.9 2.9 47.9 3.1 47.9 3.2Z" fill="white"/>
<path d="M53.3 5.40002C53.3 5.50002 53.3 5.50003 53.2 5.60003C53.2 5.70003 53.1 5.70002 53 5.80002C52.9 5.90003 52.8 5.90002 52.8 5.90002C52.7 5.90002 52.6 5.90003 52.6 5.80002C52.5 5.70002 52.4 5.60002 52.4 5.50002C52.4 5.40002 52.4 5.20003 52.4 5.10003C52.5 5.00003 52.6 4.90002 52.7 4.90002C52.8 4.90002 52.9 4.90002 53.1 4.90002C53.2 4.90002 53.2 5.00002 53.3 5.00002C53.3 5.00002 53.4 5.10002 53.4 5.20002C53.4 5.30002 53.3 5.40002 53.3 5.40002Z" fill="white"/>
<path d="M55.8 6.9C55.8 7 55.8 7.1 55.7 7.2C55.6 7.3 55.5 7.4 55.4 7.4C55.3 7.4 55.1 7.4 55 7.3C54.9 7.2 54.9 7.2 54.8 7.1C54.8 7 54.8 6.9 54.8 6.8C54.8 6.7 54.9 6.6 54.9 6.6C55 6.5 55.1 6.5 55.1 6.5C55.2 6.5 55.3 6.5 55.4 6.5C55.5 6.5 55.6 6.6 55.6 6.7C55.7 6.7 55.8 6.8 55.8 6.9Z" fill="white"/>
<path d="M50.6 4.29998C50.6 4.39998 50.5 4.49998 50.4 4.49998C50.3 4.49998 50.2 4.59998 50.1 4.59998C50 4.59998 50 4.59998 49.9 4.59998C49.8 4.59998 49.7 4.49998 49.6 4.29998C49.6 4.19998 49.6 4.09997 49.6 3.89997C49.6 3.69997 49.8 3.69998 49.9 3.59998C50 3.59998 50.1 3.59998 50.3 3.59998C50.4 3.69998 50.5 3.69997 50.6 3.89997C50.7 3.99997 50.7 4.19998 50.6 4.29998Z" fill="white"/>
<path d="M3.09996 25C3.09996 25.1 3.00001 25.2 2.90001 25.3C2.80001 25.4 2.69996 25.4 2.59996 25.4C2.49996 25.4 2.50001 25.4 2.40001 25.4C2.30001 25.4 2.19996 25.3 2.09996 25.2C1.99996 25.1 1.99996 25 2.09996 24.8C2.09996 24.7 2.1 24.7 2.2 24.6C2.2 24.6 2.30001 24.5 2.40001 24.5C2.40001 24.5 2.49996 24.5 2.59996 24.5C2.69996 24.5 2.69998 24.5 2.79998 24.5C2.89998 24.5 2.99996 24.6 3.09996 24.7C3.09996 24.8 3.09996 24.9 3.09996 25Z" fill="white"/>
<path d="M8.59998 14.6999C8.59998 14.7999 8.6 14.9999 8.5 15.0999C8.5 15.1999 8.39999 15.1999 8.29999 15.1999C8.19999 15.1999 8.19998 15.1999 8.09998 15.1999C7.99998 15.1999 7.89999 15.1999 7.79999 15.0999C7.69999 14.9999 7.59998 14.8999 7.59998 14.7999C7.59998 14.6999 7.60001 14.5999 7.70001 14.4999C7.80001 14.3999 7.9 14.2999 8 14.2999C8.1 14.2999 8.30002 14.2999 8.40002 14.3999C8.50002 14.3999 8.59998 14.4999 8.59998 14.6999Z" fill="white"/>
<path d="M68.8 22.3999C68.7 22.4999 68.7 22.5999 68.5 22.6999C68.4 22.6999 68.4 22.6999 68.3 22.6999C68.2 22.6999 68.1 22.6999 68 22.5999C67.9 22.4999 67.8 22.3999 67.8 22.2999C67.8 22.1999 67.8 22.0999 67.8 21.9999C67.8 21.8999 67.9 21.7999 68 21.7999C68 21.7999 68.1 21.7999 68.2 21.7999C68.3 21.7999 68.3 21.7999 68.4 21.7999C68.5 21.7999 68.5 21.8999 68.6 21.8999C68.6 21.8999 68.7 21.9999 68.7 22.0999C68.8 22.1999 68.8 22.2999 68.8 22.3999Z" fill="white"/>
<path d="M67.5 19.7C67.5 19.8 67.4 19.9 67.3 20C67.2 20 67.1 20.1 67.1 20.1C67 20.1 66.9 20.1 66.9 20C66.8 20 66.8 19.9 66.7 19.8C66.7 19.7 66.6 19.7 66.6 19.6C66.6 19.5 66.6 19.5 66.6 19.4C66.6 19.3 66.7 19.3 66.7 19.2L66.8 19.1C66.9 19 67 19 67.2 19.1C67.3 19.1 67.3 19.1 67.4 19.2C67.5 19.2 67.5 19.3 67.5 19.3C67.5 19.5 67.5 19.6 67.5 19.7Z" fill="white"/>
<path d="M1.29999 33.5C1.29999 33.6 1.20001 33.7 1.20001 33.8C1.10001 33.9 1.00002 33.9 0.900024 33.9C0.800024 33.9 0.699976 33.8 0.599976 33.7C0.499976 33.6 0.5 33.5 0.5 33.4C0.5 33.3 0.600012 33.2 0.700012 33.1C0.800012 33 0.9 33 1 33C1.1 33 1.19999 33.1 1.29999 33.1C1.29999 33.3 1.29999 33.4 1.29999 33.5Z" fill="white"/>
<path d="M64.3 14.7999C64.3 14.8999 64.2 14.9999 64.1 15.0999C64 15.1999 63.9 15.1999 63.8 15.1999C63.7 15.1999 63.6 15.1999 63.6 15.1999C63.5 15.1999 63.5 15.0999 63.4 15.0999C63.3 14.9999 63.3 14.8999 63.3 14.6999C63.3 14.5999 63.4 14.4999 63.5 14.3999C63.6 14.2999 63.7 14.2999 63.9 14.2999C64 14.2999 64.1 14.3999 64.2 14.4999C64.3 14.4999 64.3 14.6999 64.3 14.7999Z" fill="white"/>
<path d="M62.4 12.5C62.4 12.6 62.3 12.7 62.3 12.8C62.2 12.9 62.1 12.9 62 12.9C61.9 12.9 61.8 12.9 61.7 12.8C61.6 12.8 61.6 12.7 61.5 12.6C61.5 12.5 61.4 12.4 61.5 12.3C61.5 12.2 61.6 12.1 61.6 12.1C61.7 12 61.8 12 61.9 12C62 12 62.1 12.1 62.2 12.2C62.4 12.3 62.4 12.4 62.4 12.5Z" fill="white"/>
<path d="M5.40002 19.7C5.40002 19.8 5.39999 19.8 5.29999 19.9C5.29999 20 5.19998 20 5.09998 20.1C4.99998 20.1 4.90002 20.2 4.90002 20.2C4.80002 20.2 4.70001 20.2 4.70001 20.1C4.60001 20 4.5 19.8999 4.5 19.7999C4.5 19.6999 4.5 19.5 4.5 19.4C4.6 19.3 4.69999 19.2 4.79999 19.2C4.89999 19.2 5.10001 19.2 5.20001 19.2C5.30001 19.2 5.30002 19.2999 5.40002 19.2999C5.40002 19.2999 5.5 19.4 5.5 19.5C5.4 19.5 5.40002 19.6 5.40002 19.7Z" fill="white"/>
<path d="M66 17C66 17.1 66 17.1 66 17.2C66 17.3 66 17.3 65.9 17.4C65.9 17.5 65.8 17.5 65.8 17.5C65.7 17.5 65.6 17.6 65.5 17.6C65.4 17.6 65.3 17.6 65.3 17.5C65.2 17.5 65.2 17.4 65.1 17.3C65 17.2 65 17.1 65 16.9C65 16.8 65.1 16.7 65.2 16.6C65.2 16.6 65.3 16.5 65.4 16.5C65.5 16.5 65.5 16.5 65.6 16.5C65.7 16.5 65.7 16.5 65.8 16.6C65.9 16.6 65.9 16.7 65.9 16.7C66 16.9 66 17 66 17Z" fill="white"/>
<path d="M6.90002 17.2C6.90002 17.3 6.89999 17.3 6.79999 17.4C6.79999 17.5 6.69998 17.5 6.59998 17.6C6.49998 17.6 6.40002 17.7 6.40002 17.7C6.30002 17.7 6.19998 17.7 6.09998 17.6C5.99998 17.6 6 17.5 6 17.5C6 17.5 5.90002 17.3999 5.90002 17.2999C5.90002 17.1999 5.90002 17.2 5.90002 17.1C5.90002 17 5.9 17 6 16.9C6 16.8 6.09998 16.7999 6.09998 16.7999C6.09998 16.7999 6.19999 16.7 6.29999 16.7C6.39999 16.7 6.4 16.7 6.5 16.7C6.6 16.7 6.60001 16.6999 6.70001 16.7999C6.80001 16.7999 6.79999 16.9 6.79999 16.9C6.79999 16.9 6.90002 17 6.90002 17.1C6.90002 17.1 6.90002 17.1 6.90002 17.2Z" fill="white"/>
<path d="M4.09998 22.4C4.09998 22.5 4.00002 22.6 3.90002 22.6C3.80002 22.7 3.69998 22.7 3.59998 22.7C3.49998 22.7 3.50002 22.7 3.40002 22.7C3.30002 22.7 3.19998 22.6 3.09998 22.4C3.09998 22.3 3.09998 22.1 3.09998 22C3.19998 21.9 3.30002 21.8 3.40002 21.7C3.50002 21.6 3.69999 21.7 3.79999 21.7C3.89999 21.7 3.99998 21.8 4.09998 22C4.19998 22.2 4.19998 22.3 4.09998 22.4Z" fill="white"/>
<path d="M60.4 10.3C60.4 10.4 60.4 10.5 60.4 10.6C60.4 10.7 60.3 10.8 60.2 10.8C60.1 10.8 60 10.9 59.9 10.9C59.8 10.9 59.7 10.9 59.6 10.8C59.6 10.8 59.5 10.7 59.5 10.6C59.5 10.5 59.5 10.5 59.5 10.4C59.5 10.3 59.5 10.3 59.5 10.2C59.5 10.1 59.6 10.1 59.6 10C59.6 10 59.7 9.90002 59.8 9.90002C59.9 9.90002 59.9 9.90002 60 9.90002C60.1 9.90002 60.1 9.90002 60.2 9.90002C60.3 9.90002 60.3 9.90002 60.4 10C60.3 10.2 60.3 10.2 60.4 10.3Z" fill="white"/>
<path d="M3 47.7999C3 47.8999 3 47.8999 3 47.9999C3 48.0999 2.90002 48.0999 2.90002 48.0999C2.80002 48.0999 2.80001 48.1999 2.70001 48.1999C2.70001 48.1999 2.6 48.1999 2.5 48.1999C2.4 48.1999 2.30001 48.1999 2.20001 48.0999C2.10001 47.9999 2 47.8999 2 47.7999C2 47.6999 1.99998 47.5999 2.09998 47.4999C2.19998 47.3999 2.30002 47.2999 2.40002 47.2999C2.50002 47.2999 2.49998 47.2999 2.59998 47.2999C2.69998 47.2999 2.69999 47.2999 2.79999 47.2999C2.89999 47.2999 2.9 47.3999 3 47.3999C3 47.3999 3.09998 47.4999 3.09998 47.5999C3.09998 47.6999 3 47.6999 3 47.7999Z" fill="white"/>
<path d="M2.20001 45C2.20001 45.1 2.19998 45.1 2.09998 45.2C2.09998 45.3 2 45.3 2 45.3C1.9 45.3 1.89999 45.4 1.79999 45.4H1.70001C1.60001 45.4 1.50002 45.4 1.40002 45.3C1.30002 45.2 1.30001 45.1 1.20001 45C1.20001 44.9 1.19999 44.7 1.29999 44.6C1.39999 44.5 1.49998 44.4 1.59998 44.4C1.69998 44.4 1.69999 44.4 1.79999 44.4C1.89999 44.4 1.9 44.4 2 44.5C2.1 44.5 2.09998 44.6 2.09998 44.6C2.09998 44.6 2.20001 44.7 2.20001 44.8C2.20001 44.9 2.20001 45 2.20001 45Z" fill="white"/>
<path d="M10.3 60.1C10.3 60.2 10.3 60.2 10.3 60.3C10.3 60.4 10.2 60.4 10.2 60.5C10.1 60.6 10 60.6 9.90002 60.6C9.80002 60.6 9.69998 60.6 9.59998 60.5C9.49998 60.4 9.40002 60.4 9.40002 60.3C9.40002 60.2 9.40002 60.1 9.40002 60C9.40002 59.9 9.49998 59.8 9.59998 59.8C9.69998 59.8 9.69999 59.7 9.79999 59.7C9.89999 59.7 9.9 59.7 10 59.7C10.1 59.7 10.1 59.7 10.2 59.7C10.3 59.7 10.3 59.8 10.4 59.8C10.4 59.8 10.5 59.9 10.5 60C10.3 60 10.3 60 10.3 60.1Z" fill="white"/>
<path d="M1.29999 39.3999C1.29999 39.4999 1.19998 39.5999 1.09998 39.5999C0.999976 39.6999 0.899988 39.6999 0.799988 39.6999C0.699988 39.6999 0.6 39.5999 0.5 39.5999C0.4 39.4999 0.399988 39.3999 0.299988 39.2999C0.299988 39.1999 0.300024 39.0999 0.400024 38.9999C0.400024 38.8999 0.499976 38.7999 0.599976 38.7999C0.699976 38.7999 0.800024 38.6999 0.900024 38.7999C1.00002 38.7999 1.10001 38.7999 1.20001 38.8999C1.30001 38.9999 1.30002 39.0999 1.40002 39.0999C1.30002 39.1999 1.29999 39.2999 1.29999 39.3999Z" fill="white"/>
<path d="M1.59998 42.0999C1.59998 42.1999 1.6 42.3999 1.5 42.4999C1.4 42.5999 1.30001 42.6999 1.20001 42.6999H1.09998C0.999976 42.6999 0.899988 42.6999 0.799988 42.5999C0.699988 42.4999 0.700012 42.3999 0.700012 42.2999C0.700012 42.1999 0.699988 42.0999 0.799988 41.9999C0.899988 41.8999 0.999976 41.7999 1.09998 41.7999C1.19998 41.7999 1.19999 41.7999 1.29999 41.7999C1.39999 41.7999 1.4 41.7999 1.5 41.8999C1.6 41.8999 1.59998 41.9999 1.59998 41.9999C1.59998 41.8999 1.59998 41.9999 1.59998 42.0999Z" fill="white"/>
<path d="M8.40002 57.8999C8.40002 57.9999 8.39999 57.9999 8.29999 58.0999C8.29999 58.1999 8.20001 58.1999 8.20001 58.1999C8.10001 58.2999 8.00002 58.2999 7.90002 58.2999C7.80002 58.2999 7.80001 58.2999 7.70001 58.1999C7.60001 58.1999 7.6 58.0999 7.5 58.0999C7.4 57.9999 7.40002 57.8999 7.40002 57.6999C7.40002 57.4999 7.49998 57.4999 7.59998 57.3999C7.59998 57.3999 7.69999 57.2999 7.79999 57.2999C7.89999 57.2999 7.9 57.2999 8 57.2999C8.1 57.2999 8.10001 57.2999 8.20001 57.3999C8.30001 57.3999 8.30002 57.4999 8.40002 57.4999C8.50002 57.4999 8.5 57.5999 8.5 57.6999C8.4 57.7999 8.40002 57.7999 8.40002 57.8999Z" fill="white"/>
<path d="M4 50.6C3.9 50.7 3.90001 50.8 3.70001 50.9C3.60001 50.9 3.6 50.9 3.5 50.9C3.4 50.9 3.30001 50.9 3.20001 50.8C3.10001 50.8 3.1 50.7 3 50.6C3 50.5 3 50.5 3 50.4C3 50.3 3 50.3 3 50.2C3 50.1 3.09998 50.1 3.09998 50C3.09998 50 3.19999 49.9 3.29999 49.9C3.29999 49.9 3.4 49.9 3.5 49.9C3.6 49.9 3.60001 49.9 3.70001 49.9C3.80001 49.9 3.80002 50 3.90002 50L4 50.1C4.1 50.3 4.1 50.5 4 50.6Z" fill="white"/>
<path d="M6.79999 55.4C6.79999 55.5 6.79999 55.5 6.79999 55.6C6.79999 55.7 6.80001 55.7 6.70001 55.8L6.59998 55.9C6.49998 56 6.39999 56 6.29999 56C6.19999 56 6.1 56 6 55.9C5.9 55.8 5.89999 55.7 5.79999 55.7C5.79999 55.6 5.79999 55.5 5.79999 55.4C5.79999 55.3 5.9 55.2 6 55.2C6.1 55.2 6.10001 55.1 6.20001 55.1C6.30001 55.1 6.30002 55.1 6.40002 55.1C6.50002 55.1 6.49998 55.1 6.59998 55.2C6.69998 55.2 6.70001 55.3 6.70001 55.3L6.79999 55.4Z" fill="white"/>
<path d="M5.29998 53.0999C5.29998 53.1999 5.19996 53.2999 5.09996 53.3999C4.99996 53.3999 5.00001 53.4999 4.90001 53.4999C4.80001 53.4999 4.7 53.4999 4.7 53.3999C4.6 53.3999 4.59999 53.2999 4.49999 53.1999C4.39999 53.0999 4.39999 52.9999 4.49999 52.7999C4.49999 52.6999 4.6 52.5999 4.7 52.4999C4.8 52.3999 4.89996 52.3999 5.09996 52.4999C5.19996 52.4999 5.30001 52.5999 5.40001 52.6999C5.30001 52.8999 5.29998 52.9999 5.29998 53.0999Z" fill="white"/>
<path d="M71.8 36.4C71.8 36.5 71.8 36.6 71.7 36.7C71.7 36.8 71.6 36.8 71.5 36.9C71.4 37 71.3 36.9 71.2 36.9C71.1 36.9 71 36.8 71 36.8C70.9 36.7 70.9 36.6 70.9 36.6C70.9 36.5 70.9 36.4 70.9 36.3C70.9 36.2 71 36.1 71.1 36.1C71.2 36.1 71.3 36 71.4 36C71.5 36 71.7 36 71.8 36.1C71.7 36.2 71.8 36.3 71.8 36.4Z" fill="white"/>
<path d="M52.7 67.7999C52.7 68.0999 52.5 68.2999 52.2 68.2999C51.9 68.2999 51.7 68.0999 51.7 67.7999C51.7 67.4999 51.9 67.2999 52.2 67.2999C52.5 67.2999 52.7 67.4999 52.7 67.7999Z" fill="white"/>
<path d="M1.20001 36.3C1.20001 36.4 1.20001 36.5 1.20001 36.6C1.20001 36.7 1.1 36.8 1 36.8C0.9 36.8 0.800012 36.9 0.700012 36.9C0.600012 36.9 0.400024 36.9 0.400024 36.8C0.300024 36.7 0.200012 36.6 0.200012 36.4C0.200012 36.3 0.199988 36.2 0.299988 36.1C0.299988 36 0.4 36 0.5 35.9C0.6 35.9 0.699988 35.8 0.799988 35.9C0.899988 35.9 0.999976 36 1.09998 36C1.09998 36.1 1.20001 36.2 1.20001 36.3Z" fill="white"/>
<path d="M36.5 0.999976C36.5 1.09998 36.5 1.19998 36.5 1.29998C36.5 1.39998 36.4 1.49998 36.3 1.49998C36.2 1.59998 36.1 1.59998 36 1.59998C35.9 1.59998 35.7 1.49998 35.7 1.39998C35.6 1.29998 35.5 1.19998 35.5 1.09998C35.5 0.999976 35.5 0.899976 35.6 0.799976C35.7 0.699976 35.7 0.699976 35.8 0.599976C35.9 0.599976 36 0.599976 36.1 0.599976C36.2 0.599976 36.3 0.699975 36.3 0.699975C36.4 0.799975 36.5 0.899976 36.5 0.999976Z" fill="white"/>
<path d="M12.3 62.2C12.3 62.3 12.2 62.4 12.1 62.5C12 62.6 11.9 62.6 11.8 62.6C11.7 62.6 11.6 62.6 11.5 62.5C11.4 62.5 11.4 62.4 11.3 62.3C11.3 62.2 11.3 62.1 11.3 62C11.3 61.9 11.4 61.8 11.5 61.8C11.6 61.7 11.7 61.7 11.8 61.7C11.9 61.7 12 61.8 12.1 61.9C12.3 61.9 12.3 62 12.3 62.2Z" fill="white"/>
<path d="M38.7 71.6999C38.7 71.7999 38.7 71.8999 38.6 71.9999C38.5 72.0999 38.4 72.1999 38.3 72.1999C38.2 72.1999 38.1 72.1999 38 72.0999C37.9 71.9999 37.8 71.8999 37.8 71.7999C37.8 71.6999 37.8 71.5999 37.9 71.4999C38 71.3999 38.1 71.2999 38.2 71.2999C38.3 71.2999 38.4 71.2999 38.5 71.3999C38.6 71.4999 38.7 71.5999 38.7 71.6999Z" fill="white"/>
<path d="M44.5 70.9C44.5 71 44.5 71.2 44.4 71.3C44.3 71.4 44.2 71.5 44.1 71.5C44 71.5 43.8 71.5 43.7 71.4C43.6 71.3 43.5 71.2 43.5 71.1C43.5 71 43.5 70.8 43.6 70.7C43.7 70.6 43.8 70.5 43.9 70.5C44 70.5 44.2 70.5 44.3 70.6C44.4 70.6 44.5 70.7 44.5 70.9Z" fill="white"/>
<path d="M47.2 70.4C47.1 70.5 47 70.6 46.9 70.6C46.8 70.6 46.7 70.6 46.5 70.6C46.4 70.6 46.3 70.4 46.3 70.3C46.3 70.2 46.3 70.2 46.3 70.1C46.3 70 46.3 70 46.4 69.9C46.5 69.8 46.5 69.8 46.5 69.8C46.6 69.8 46.6 69.7 46.7 69.7H46.8C46.9 69.7 47 69.7 47.1 69.8C47.2 69.9 47.3 70 47.3 70.1C47.3 70.1 47.3 70.3 47.2 70.4Z" fill="white"/>
<path d="M50 69.3C49.9 69.4 49.8 69.5 49.7 69.5C49.6 69.5 49.5 69.5 49.4 69.5C49.3 69.4 49.2 69.4 49.2 69.2C49.2 69.1 49.2 69 49.2 68.8C49.3 68.7 49.3 68.6 49.4 68.6H49.5C49.6 68.6 49.7 68.6 49.8 68.7C49.9 68.8 50 68.9 50 69C50 69.1 50 69.2 50 69.3Z" fill="white"/>
<path d="M19 67.6C19 67.7 18.9 67.7 18.9 67.7C18.8 67.7 18.8 67.8 18.7 67.8C18.6 67.8 18.6 67.8 18.5 67.8C18.4 67.8 18.4 67.8 18.3 67.7C18.2 67.6 18.1 67.5 18.1 67.4C18.1 67.3 18.1 67.1 18.2 67C18.2 66.9 18.3 66.9 18.3 66.8C18.4 66.8 18.4 66.7 18.5 66.7C18.6 66.7 18.7 66.7 18.8 66.8C18.9 66.9 19 67 19 67.1C19.1 67.3 19.1 67.5 19 67.6Z" fill="white"/>
<path d="M32.9 71.7C32.9 71.8 32.8 71.9 32.7 72C32.6 72.1 32.5 72.1 32.4 72.1C32.3 72.1 32.2 72 32.1 72C32 71.9 32 71.8 32 71.7C32 71.6 32 71.5 32.1 71.4C32.2 71.3 32.3 71.2 32.4 71.2H32.5C32.6 71.2 32.7 71.3 32.8 71.4C32.8 71.5 32.9 71.6 32.9 71.7Z" fill="white"/>
<path d="M35.8 71.8999C35.8 71.9999 35.7 72.0999 35.6 72.1999C35.5 72.2999 35.4 72.2999 35.3 72.2999C35.2 72.2999 35 72.2999 34.9 72.1999C34.8 72.0999 34.8 71.9999 34.8 71.8999C34.8 71.7999 34.8 71.6999 34.9 71.4999C35 71.3999 35.1 71.2999 35.2 71.2999H35.3C35.4 71.2999 35.5 71.3999 35.6 71.4999C35.7 71.5999 35.8 71.7999 35.8 71.8999Z" fill="white"/>
<path d="M30 71.1999C30 71.2999 30 71.2999 30 71.3999C30 71.4999 29.9 71.5999 29.9 71.5999C29.8 71.6999 29.8 71.6999 29.7 71.6999C29.6 71.6999 29.5 71.6999 29.4 71.6999C29.3 71.6999 29.2 71.5999 29.2 71.5999C29.1 71.4999 29.1 71.3999 29.1 71.3999C29.1 71.2999 29.1 71.1999 29.1 71.0999C29.1 70.9999 29.2 70.8999 29.2 70.8999C29.3 70.8999 29.4 70.7999 29.4 70.7999C29.5 70.7999 29.5 70.7999 29.6 70.7999C29.7 70.7999 29.7 70.7999 29.8 70.8999C29.9 70.8999 29.9 70.9999 29.9 70.9999C29.9 71.0999 30 71.0999 30 71.1999Z" fill="white"/>
<path d="M24.3 69.9C24.3 70 24.2 70.1 24 70.2C23.9 70.3 23.8 70.3 23.6 70.2C23.5 70.2 23.5 70.2 23.4 70.1C23.4 70.1 23.3 70 23.3 69.9C23.3 69.9 23.3 69.8 23.3 69.7C23.3 69.6 23.3 69.6 23.3 69.5C23.3 69.4 23.4 69.3 23.5 69.3C23.6 69.2 23.7 69.2 23.7 69.2C23.8 69.2 23.9 69.2 23.9 69.2C24 69.2 24.1 69.3 24.2 69.5C24.4 69.7 24.4 69.8 24.3 69.9Z" fill="white"/>
<path d="M21.7 68.7C21.7 68.8 21.7 68.9 21.6 69C21.6 69.1 21.5 69.1 21.4 69.2C21.3 69.2 21.2 69.2 21.1 69.2C21 69.2 20.9 69.1 20.9 69.1C20.8 69 20.8 68.9 20.8 68.9C20.8 68.8 20.8 68.7 20.8 68.6C20.9 68.5 21 68.4 21.1 68.4C21.2 68.3 21.4 68.4 21.5 68.4C21.6 68.4 21.7 68.5 21.7 68.6C21.6 68.5 21.7 68.6 21.7 68.7Z" fill="white"/>
<path d="M27.2 70.5999C27.2 70.6999 27.2 70.6999 27.2 70.7999C27.2 70.8999 27.2 70.8999 27.1 70.9999L27 71.0999C26.9 71.0999 26.9 71.1999 26.8 71.1999C26.7 71.1999 26.7 71.1999 26.6 71.1999C26.5 71.1999 26.4 71.0999 26.3 70.9999C26.2 70.8999 26.2 70.7999 26.2 70.5999C26.2 70.4999 26.3 70.3999 26.4 70.3999C26.5 70.2999 26.6 70.2999 26.6 70.2999C26.7 70.2999 26.7 70.2999 26.8 70.2999C26.9 70.2999 26.9 70.2999 27 70.3999C27.1 70.3999 27.1 70.4999 27.1 70.4999C27.1 70.3999 27.2 70.4999 27.2 70.5999Z" fill="white"/>
<path d="M14.2 64.1C14.2 64.2 14.2 64.3 14.1 64.4C14.1 64.4 14 64.5 13.9 64.5C13.8 64.5 13.8 64.5 13.7 64.6C13.6 64.6 13.6 64.6 13.5 64.6C13.4 64.6 13.4 64.6 13.3 64.5L13.2 64.4C13.2 64.3 13.2 64.3 13.1 64.2C13.1 64.1 13.1 64.1 13.1 64C13.1 63.9 13.1 63.9 13.2 63.8C13.3 63.7 13.4 63.6 13.5 63.6C13.6 63.6 13.7 63.6 13.8 63.6C13.9 63.6 14 63.7 14 63.8C14.2 63.9 14.3 64 14.2 64.1Z" fill="white"/>
<path d="M16.6 65.8999C16.6 65.9999 16.6 66.0999 16.5 66.0999C16.4 66.1999 16.4 66.1999 16.3 66.1999C16.2 66.1999 16.1 66.1999 16.1 66.1999C16 66.1999 16 66.1999 15.9 66.0999C15.8 66.0999 15.8 65.9999 15.7 65.8999C15.7 65.7999 15.7 65.6999 15.7 65.5999C15.7 65.4999 15.8 65.3999 15.8 65.3999C15.9 65.2999 16 65.2999 16.1 65.2999C16.2 65.2999 16.3 65.2999 16.3 65.2999C16.4 65.2999 16.5 65.3999 16.5 65.3999C16.6 65.4999 16.6 65.4999 16.6 65.5999C16.6 65.6999 16.6 65.7999 16.6 65.8999Z" fill="white"/>
<path d="M41.6 71.7C41.6 71.8 41.5 71.9 41.4 71.9C41.3 71.9 41.2 72 41.1 72C41 72 40.9 72 40.8 71.9C40.7 71.8 40.7 71.8 40.6 71.7C40.6 71.6 40.6 71.5 40.6 71.4C40.6 71.3 40.7 71.2 40.8 71.2C40.9 71.1 41 71.1 41.1 71.1C41.2 71.1 41.4 71.1 41.5 71.2C41.6 71.3 41.7 71.4 41.7 71.5C41.6 71.5 41.6 71.6 41.6 71.7Z" fill="white"/>
<path d="M57.4 55C57.2 55.2 56.8 55.4 56.5 55.5C56.2 55.6 55.8 55.5999 55.5 55.5999C54.8 55.4999 54.1 55.2 53.6 54.7C53.3 54.5 53.1 54.2 52.9 53.9C52.7 53.6 52.7 53.2 52.6 52.9C52.6 52.5 52.8 52.1 53.1 51.7C53.2 51.5 53.4 51.3999 53.6 51.2999C53.8 51.1999 54 51.2 54.2 51.2C54.9 51.2 55.5 51.3 56.2 51.4C56.5 51.4 56.8 51.5999 57.1 51.7999C57.3 51.9999 57.5 52.2999 57.6 52.5999C57.9 53.6999 57.8 54.5 57.4 55Z" fill="white"/>
<path d="M59.5 39.8C59.4 39.6 59.3 39.4 59 39.3C58.8 39.2 58.6 39.1 58.3 39.1C57.6 39 57.2 38.8 57.3 37.9C57.3 36.8 57.1 35.7 56.6 34.8C56.1 33.8 55.4 33 54.5 32.4C52.5 31.1 50.2 30.3 47.8 30.3C46 30.1 44.2 29.9 42.4 29.6C43.3 29.1 44.1 28.7 44.8 28.2C47.1 26.9 49.1 25.2 50.8 23.2C51.6 22.2 52.1 21 52.3 19.7C52.5 18.4 52.3 17.1 51.7 15.9C50.4 13.4 48.1 12.8 45.6 12.9C43.7 12.9 41.8 13.4 40 14.2C35.9 16.2 32.1 18.6 28.7 21.5C27.3 22.6 25.9 23.8 24.4 25C24.6 24 24.8 23.2 24.9 22.3C25.4 19.7 25.1 17 23.8 14.6C23.5 14.1 23.2 13.6 22.7 13.3C22.2 12.9 21.7 12.7 21.2 12.6C21 12.5 20.8 12.6 20.6 12.6C20.4 12.7 20.2 12.8 20.1 13.1C19.9 13.3 19.9 13.5 19.9 13.8C19.9 14 19.9 14.3 20.1 14.5C20.3 14.8 20.6 15.1 20.9 15.4C21.4 15.8 21.8 16.4 22.1 17C22.4 17.6 22.5 18.3 22.5 18.9C22.7 22.5 21.3 25.6 20 28.8C19.9 29 19.7 29.2 19.5 29.4C18.3 30.6 17 31.7 15.8 33C13.7 35.4 11.6 37.7 10.5 40.8C9.99999 42.3 9.89997 43.8 10.3 45.3C10.7 46.8 11.5 48.2 12.6 49.2C13 49.5 13.5 49.7 14 49.7C14.5 49.7 15 49.5 15.4 49.1C16.1 48.4 16.6 47.5 17 46.6C21.7 36.8 28 28 35.8 20.4C38 18.1 40.9 16.6 44 16C45.8 15.7 47.9 17.7 48 19.3C48.1 21.6 46.9 23.1 45.4 24.4C43.2 26.3 40.6 27.9 37.9 29C36.5 29.6 35.2 30.4 34 31.3C33.4 31.8 32.9 32.4 32.7 33.2C32.5 33.9 32.4 34.7 32.6 35.5C32.8 36.2 33.1 36.7 33.7 37.1C34.2 37.5 34.9 37.7 35.5 37.7C39 37.9 42.6 38 46.1 38.3C47.6 38.4 49.1 38.4 50.2 39.7C50.2 39.8 50.1 39.8 50 39.9C49.9 39.9 49.8 40 49.8 40C42.4 41.3 35.3 43.5 28.4 46.5C27 47.1 25.8 48 24.7 49.1C22.9 51 22.8 53.9 25.5 55.4C28.5 57.1 31.6 56.8 34.8 56.3C40.5 55.4 45.5 52.8 50.3 49.5C52.8 47.8 54.8 45.5 56.3 42.9C56.7 42.2 57.1 41.8 58 41.9C58.3 42 58.5 42 58.8 41.9C59 41.8 59.3 41.7 59.5 41.4C59.6 41.2 59.7 41 59.8 40.8C59.7 40.2 59.6 40 59.5 39.8ZM50.9 42.9C50.5 44.2 49.7 45.4 48.6 46.2C44.3 49.7 39.5 52.4 34.1 53.3C33.4 53.4 32.8 53.4 32.1 53.5C31.4 53.5 30.6 53.5 29.9 53.2C29.6 53.1 29.4 53 29.2 52.8C29 52.6 28.8 52.4 28.7 52.1C28.6 51.8 28.5 51.5 28.6 51.3C28.6 51 28.7 50.7 28.8 50.5C29.1 49.8 29.6 49.2 30.3 48.8C33.4 46.8 36.8 45.9 40.2 44.8C43.4 43.8 46.7 42.9 50.1 42.3C51 41.9 51.1 42.2 50.9 42.9Z" fill="white"/>
</svg>
