<svg width="81" height="81" viewBox="0 0 81 81" fill="none" xmlns="http://www.w3.org/2000/svg">
<g clip-path="url(#clip0_1_1968)">
<path d="M40.5106 0C18.1599 0 0 18.1599 0 40.5106C0 62.8401 18.1599 81.0212 40.5106 81.0212C62.8613 81.0212 81.0212 62.8613 81.0212 40.5106C81 18.1599 62.8401 0 40.5106 0ZM40.5106 78.4602C19.578 78.4602 2.53985 61.4432 2.53985 40.5106C2.53985 19.578 19.578 2.53985 40.5106 2.53985C61.4432 2.53985 78.4814 19.578 78.4814 40.5106C78.4814 61.4432 61.4432 78.4602 40.5106 78.4602Z" fill="white"/>
<path d="M34.2462 40.4682C34.3944 39.8756 34.0134 39.2829 33.4207 39.1348C32.5741 38.9231 31.3254 37.0817 31.4312 36.1716C31.4947 35.579 31.0714 35.0287 30.4788 34.944C29.865 34.8806 29.3358 35.3039 29.2512 35.8965C28.9972 37.9072 30.9867 40.8068 32.9128 41.2725C32.9974 41.2936 33.0821 41.2936 33.1668 41.2936C33.6747 41.3148 34.1192 40.9762 34.2462 40.4682Z" fill="white"/>
<path d="M51.4322 53.8234C51.2206 53.8234 51.0089 53.8446 50.7973 53.8658L47.8553 46.606C49.2945 45.7806 50.6068 44.7011 51.7497 43.4101C54.3954 40.3834 55.9193 36.362 55.9193 32.3617C55.9193 31.7479 55.4325 31.2611 54.8187 31.2611H25.4835C24.8697 31.2611 24.3829 31.7479 24.3829 32.3617C24.3829 33.0813 24.4252 33.801 24.531 34.5206H19.79C19.1762 34.5206 18.6894 35.0074 18.6894 35.6212C18.6894 36.235 19.1762 36.7218 19.79 36.7218H24.9755C25.6528 39.177 26.8804 41.5052 28.5524 43.4101C29.653 44.6588 30.923 45.7171 32.3199 46.5214L26.2031 62.1203C25.9914 62.6918 26.2666 63.3267 26.8169 63.5384C26.9439 63.5807 27.092 63.623 27.219 63.623C27.6635 63.623 28.0656 63.3479 28.235 62.9246L29.6319 59.3899H46.416C46.7547 61.7816 48.8712 63.623 51.4111 63.623C54.1837 63.623 56.4484 61.4218 56.4484 58.7127C56.4696 56.0246 54.2049 53.8234 51.4322 53.8234ZM30.2245 41.9496C28.1503 39.6003 26.8804 36.5525 26.6475 33.4411H53.6969C53.4429 36.5525 52.173 39.6003 50.12 41.9496C49.1887 43.0079 47.8553 44.1932 46.0985 45.061H46.0774C46.0139 45.0821 45.9716 45.1033 45.9292 45.1456C44.363 45.8864 42.4581 46.3944 40.1934 46.3944C37.8652 46.3944 35.918 45.8652 34.3306 45.0821C34.2671 45.0398 34.2036 45.0186 34.1401 44.9763C32.4045 44.1297 31.1346 42.9867 30.2245 41.9496ZM34.3094 47.495C36.1296 48.2146 38.098 48.6167 40.1511 48.6167C42.1618 48.6167 44.0878 48.2569 45.8657 47.5585L48.7019 54.6066C47.7283 55.1992 47.0087 56.1305 46.6277 57.1887H30.4997L34.3094 47.495ZM51.4322 61.4218C49.866 61.4218 48.5961 60.2154 48.5961 58.7127C48.5961 57.2311 49.866 56.0035 51.4322 56.0035C52.9985 56.0035 54.2684 57.2099 54.2684 58.7127C54.2684 60.2154 52.9985 61.4218 51.4322 61.4218Z" fill="white"/>
<path d="M31.3462 27.7271C30.8383 28.0658 30.7113 28.7643 31.0711 29.2511C31.2827 29.5685 31.6214 29.7379 31.9812 29.7379C32.1929 29.7379 32.4045 29.6744 32.595 29.5474C36.1931 27.0922 34.5634 24.4253 33.7803 23.1554C32.9125 21.7585 32.5527 20.9542 34.3306 19.7266C34.8385 19.388 34.9655 18.6895 34.6057 18.2027C34.2671 17.6947 33.5686 17.5678 33.0818 17.9276C29.4837 20.3828 31.1134 23.0496 31.8965 24.3195C32.7643 25.7164 33.1241 26.5207 31.3462 27.7271Z" fill="white"/>
<path d="M46.141 27.7271C45.633 28.0658 45.506 28.7643 45.8658 29.2511C46.0775 29.5685 46.4161 29.7379 46.7759 29.7379C46.9876 29.7379 47.1992 29.6744 47.3897 29.5474C50.9878 27.0922 49.3581 24.4253 48.575 23.1554C47.7072 21.7585 47.3474 20.9542 49.1253 19.7266C49.6333 19.388 49.7602 18.6895 49.4004 18.2027C49.0618 17.6947 48.3633 17.5678 47.8765 17.9276C44.2784 20.3828 45.9082 23.0496 46.6913 24.3195C47.5591 25.7164 47.9189 26.5207 46.141 27.7271Z" fill="white"/>
<path d="M37.9284 27.727C37.4204 28.0656 37.2934 28.7641 37.6532 29.2509C37.8649 29.5684 38.2035 29.7377 38.5633 29.7377C38.775 29.7377 38.9866 29.6742 39.1771 29.5472C43.77 26.3936 41.6746 22.9859 40.6799 21.3562C39.4311 19.3243 38.8808 17.9697 41.5476 16.1284C42.0556 15.7897 42.1826 15.0913 41.8228 14.6044C41.4841 14.0965 40.7857 13.9695 40.2989 14.3293C35.706 17.4829 37.8014 20.8906 38.7961 22.5203C40.0449 24.531 40.6164 25.9068 37.9284 27.727Z" fill="white"/>
</g>
<defs>
<clipPath id="clip0_1_1968">
<rect width="81" height="81" fill="white"/>
</clipPath>
</defs>
</svg>
