<svg width="42" height="41" viewBox="0 0 42 41" fill="none" xmlns="http://www.w3.org/2000/svg">
<path d="M21.3215 40.9977C17.282 40.9977 13.3333 39.7954 9.97458 37.543C6.61588 35.2906 3.99802 32.0891 2.45212 28.3434C0.906232 24.5977 0.50175 20.4761 1.28971 16.4996C2.07767 12.5232 4.02271 8.87056 6.87894 6.00363C9.73516 3.13669 13.3743 1.18421 17.3361 0.393084C21.2979 -0.398041 25.4044 0.00773473 29.1364 1.55907C32.8685 3.1104 36.0584 5.73764 38.3028 9.10855C40.5472 12.4795 41.7453 16.4426 41.7456 20.497C41.7398 25.9321 39.5861 31.1429 35.7572 34.9863C31.9282 38.8296 26.7366 40.9915 21.3215 40.9977ZM21.3215 1.55313C17.5882 1.55286 13.9387 2.66371 10.8345 4.74521C7.73023 6.82671 5.31063 9.78539 3.88173 13.2471C2.45282 16.7088 2.07876 20.518 2.80682 24.193C3.53487 27.8681 5.33231 31.2439 7.97193 33.8937C10.6116 36.5434 13.9748 38.348 17.6363 39.0793C21.2978 39.8105 25.093 39.4356 28.5422 38.002C31.9914 36.5683 34.9396 34.1403 37.0139 31.0249C39.0882 27.9095 40.1955 24.2467 40.1958 20.4997C40.1904 15.477 38.2002 10.6616 34.6617 7.10993C31.1233 3.55823 26.3257 1.56031 21.3215 1.55451V1.55313Z" fill="white"/>
<path d="M21.3214 11.6358C24.1983 11.6358 24.5383 11.6468 25.6757 11.6988C26.3588 11.7065 27.0355 11.8321 27.6761 12.0703C28.1416 12.2502 28.5645 12.5261 28.9172 12.8802C29.27 13.2343 29.5449 13.6587 29.7242 14.1259C29.9616 14.7694 30.0872 15.4489 30.0956 16.135C30.1475 17.2752 30.1584 17.6165 30.1584 20.504C30.1584 23.3916 30.1475 23.7342 30.0956 24.8744C30.0873 25.5601 29.9617 26.2392 29.7242 26.8822C29.5451 27.3495 29.2702 27.774 28.9174 28.1281C28.5646 28.4822 28.1417 28.7581 27.6761 28.9379C27.0355 29.176 26.3588 29.3016 25.6757 29.3092C24.5383 29.3613 24.1997 29.3723 21.3214 29.3723C18.443 29.3723 18.1043 29.3613 16.9683 29.3092C16.2848 29.3016 15.6076 29.176 14.9666 28.9379C14.5009 28.7581 14.078 28.4822 13.7252 28.1281C13.3724 27.774 13.0976 27.3495 12.9184 26.8822C12.681 26.2392 12.5559 25.56 12.5484 24.8744C12.4952 23.7342 12.4857 23.393 12.4857 20.504C12.4857 17.6151 12.4965 17.2752 12.5484 16.135C12.556 15.449 12.6812 14.7694 12.9184 14.1259C13.0977 13.6587 13.3726 13.2343 13.7254 12.8802C14.0782 12.5261 14.501 12.2502 14.9666 12.0703C15.6076 11.8321 16.2848 11.7065 16.9683 11.6988C18.1043 11.6468 18.4444 11.6358 21.3214 11.6358ZM21.3214 9.68701C18.3952 9.68701 18.0292 9.69935 16.8795 9.7528C15.9859 9.77057 15.1017 9.94065 14.2648 10.2558C13.549 10.5333 12.8989 10.9581 12.3564 11.5028C11.8139 12.0476 11.3909 12.7002 11.1147 13.4188C10.8006 14.2587 10.6311 15.1462 10.6136 16.0432C10.5603 17.1971 10.5481 17.5658 10.5481 20.5013C10.5481 23.4368 10.5603 23.8069 10.6136 24.9608C10.6311 25.8578 10.8006 26.7453 11.1147 27.5852C11.3909 28.3038 11.8139 28.9564 12.3564 29.5011C12.8989 30.0459 13.549 30.4707 14.2648 30.7482C15.1019 31.0628 15.9859 31.2328 16.8795 31.2512C18.0292 31.3046 18.3952 31.317 21.3214 31.317C24.2475 31.317 24.6148 31.3046 25.7631 31.2512C26.6572 31.233 27.5417 31.0629 28.3792 30.7482C29.0951 30.4705 29.7453 30.0457 30.288 29.501C30.8307 28.9563 31.254 28.3038 31.5307 27.5852C31.8443 26.7451 32.0138 25.8577 32.0318 24.9608C32.085 23.8069 32.096 23.4382 32.096 20.5013C32.096 17.5644 32.085 17.1958 32.0318 16.0432C32.0138 15.1462 31.8443 14.2589 31.5307 13.4188C31.254 12.7002 30.8307 12.0477 30.288 11.503C29.7453 10.9583 29.0951 10.5335 28.3792 10.2558C27.5418 9.9405 26.6572 9.77041 25.7631 9.7528C24.6134 9.69935 24.2475 9.68701 21.3214 9.68701Z" fill="white"/>
<path d="M21.3226 14.9482C20.2284 14.9482 19.1587 15.2739 18.2488 15.8841C17.339 16.4943 16.6298 17.3616 16.211 18.3763C15.7923 19.391 15.6828 20.5075 15.8962 21.5847C16.1097 22.6619 16.6367 23.6514 17.4104 24.428C18.1842 25.2046 19.17 25.7335 20.2432 25.9477C21.3165 26.162 22.4289 26.052 23.4399 25.6317C24.4508 25.2114 25.3149 24.4997 25.9229 23.5865C26.5308 22.6733 26.8554 21.5996 26.8554 20.5013C26.8554 19.0286 26.2724 17.6161 25.2348 16.5747C24.1972 15.5333 22.79 14.9482 21.3226 14.9482ZM21.3226 24.107C20.6124 24.107 19.9182 23.8957 19.3277 23.4997C18.7371 23.1037 18.2769 22.5409 18.0051 21.8823C17.7332 21.2238 17.662 20.4992 17.8005 19.8001C17.9389 19.1009 18.2808 18.4587 18.7829 17.9546C19.285 17.4504 19.9247 17.1071 20.6212 16.9678C21.3177 16.8286 22.0397 16.8998 22.6959 17.1724C23.3521 17.445 23.9131 17.9067 24.3078 18.4993C24.7026 19.0918 24.9135 19.7885 24.9137 20.5013C24.9137 21.4574 24.5354 22.3743 23.862 23.0505C23.1886 23.7266 22.2752 24.1066 21.3226 24.107Z" fill="white"/>
<path d="M28.3669 14.7278C28.3669 14.9845 28.291 15.2354 28.1489 15.4488C28.0068 15.6622 27.8049 15.8286 27.5686 15.9268C27.3324 16.025 27.0723 16.0507 26.8215 16.0007C26.5707 15.9506 26.3403 15.827 26.1595 15.6455C25.9786 15.464 25.8555 15.2327 25.8056 14.981C25.7557 14.7292 25.7813 14.4683 25.8792 14.2311C25.9771 13.994 26.1428 13.7913 26.3554 13.6487C26.568 13.5061 26.818 13.4299 27.0738 13.4299C27.4167 13.4299 27.7456 13.5667 27.9881 13.8101C28.2306 14.0535 28.3669 14.3836 28.3669 14.7278Z" fill="white"/>
</svg>
