<svg width="16" height="100" viewBox="0 0 16 100" fill="none" xmlns="http://www.w3.org/2000/svg">
<path d="M8 16.7969C7.9375 16.7969 7.8776 16.7839 7.82031 16.7578C7.76823 16.7318 7.72396 16.6953 7.6875 16.6484C7.67708 16.6328 7.60417 16.5365 7.46875 16.3594C7.33854 16.1875 7.16927 15.9479 6.96094 15.6406C6.7526 15.3333 6.51562 14.9688 6.25 14.5469C5.98958 14.125 5.72135 13.6562 5.44531 13.1406C5.28385 12.8385 5.13021 12.5391 4.98438 12.2422C4.83854 11.9401 4.70052 11.6406 4.57031 11.3438C4.44531 11.0469 4.32552 10.7552 4.21094 10.4688C4.10156 10.1771 4 9.89062 3.90625 9.60938C3.79167 9.25 3.6901 8.89844 3.60156 8.55469C3.51302 8.20573 3.4375 7.86458 3.375 7.53125C3.31771 7.19271 3.27344 6.86458 3.24219 6.54688C3.21615 6.22396 3.20312 5.90885 3.20312 5.60156C3.20312 4.9401 3.32812 4.31771 3.57812 3.73438C3.82812 3.15104 4.16927 2.64323 4.60156 2.21094C5.03906 1.77344 5.54948 1.42969 6.13281 1.17969C6.71615 0.924479 7.33854 0.796875 8 0.796875C8.66146 0.796875 9.28385 0.924479 9.86719 1.17969C10.4505 1.42969 10.9583 1.77344 11.3906 2.21094C11.8281 2.64323 12.1719 3.15104 12.4219 3.73438C12.6719 4.31771 12.7969 4.9401 12.7969 5.60156C12.7969 5.90885 12.7812 6.22396 12.75 6.54688C12.724 6.86458 12.6797 7.19271 12.6172 7.53125C12.5599 7.86458 12.487 8.20573 12.3984 8.55469C12.3099 8.89844 12.2083 9.25 12.0938 9.60938C12 9.89062 11.8958 10.1771 11.7812 10.4688C11.6719 10.7552 11.5521 11.0469 11.4219 11.3438C11.2969 11.6406 11.1615 11.9401 11.0156 12.2422C10.8698 12.5391 10.7161 12.8385 10.5547 13.1406C10.2786 13.6562 10.0078 14.125 9.74219 14.5469C9.48177 14.9688 9.2474 15.3333 9.03906 15.6406C8.83073 15.9479 8.65885 16.1875 8.52344 16.3594C8.39323 16.5365 8.32292 16.6328 8.3125 16.6484C8.27604 16.6953 8.22917 16.7318 8.17188 16.7578C8.11979 16.7839 8.0625 16.7969 8 16.7969ZM8 1.60156C7.44792 1.60156 6.92969 1.70573 6.44531 1.91406C5.96094 2.1224 5.53646 2.40885 5.17188 2.77344C4.8125 3.13281 4.52604 3.55729 4.3125 4.04688C4.10417 4.53125 4 5.04948 4 5.60156C4 6.2526 4.0651 6.90625 4.19531 7.5625C4.33073 8.21875 4.5026 8.85677 4.71094 9.47656C4.91927 10.0911 5.14844 10.6797 5.39844 11.2422C5.65365 11.7995 5.90625 12.3047 6.15625 12.7578C6.33333 13.0964 6.51042 13.4167 6.6875 13.7188C6.86458 14.0156 7.03385 14.2917 7.19531 14.5469C7.35677 14.7969 7.50521 15.0234 7.64062 15.2266C7.78125 15.4245 7.90104 15.5911 8 15.7266C8.09896 15.5859 8.21615 15.4167 8.35156 15.2188C8.49219 15.0156 8.64323 14.7891 8.80469 14.5391C8.96615 14.2839 9.13542 14.0052 9.3125 13.7031C9.49479 13.401 9.67448 13.0833 9.85156 12.75C10.0964 12.2917 10.3464 11.7839 10.6016 11.2266C10.8568 10.6693 11.0859 10.0833 11.2891 9.46875C11.4974 8.84896 11.6667 8.21354 11.7969 7.5625C11.9323 6.90625 12 6.2526 12 5.60156C12 5.04948 11.8932 4.53125 11.6797 4.04688C11.4714 3.55729 11.1849 3.13281 10.8203 2.77344C10.4609 2.40885 10.0391 2.1224 9.55469 1.91406C9.07031 1.70573 8.55208 1.60156 8 1.60156ZM8 8C7.66667 8 7.35417 7.9375 7.0625 7.8125C6.77604 7.6875 6.52344 7.51562 6.30469 7.29688C6.08594 7.07812 5.91406 6.82292 5.78906 6.53125C5.66406 6.23958 5.60156 5.92969 5.60156 5.60156C5.60156 5.26823 5.66406 4.95573 5.78906 4.66406C5.91406 4.3724 6.08594 4.11979 6.30469 3.90625C6.52344 3.6875 6.77604 3.51562 7.0625 3.39062C7.35417 3.26562 7.66667 3.20312 8 3.20312C8.33333 3.20312 8.64323 3.26562 8.92969 3.39062C9.22135 3.51562 9.47656 3.6875 9.69531 3.90625C9.91406 4.11979 10.0859 4.3724 10.2109 4.66406C10.3359 4.95573 10.3984 5.26823 10.3984 5.60156C10.3984 5.92969 10.3359 6.23958 10.2109 6.53125C10.0859 6.82292 9.91406 7.07812 9.69531 7.29688C9.47656 7.51562 9.22135 7.6875 8.92969 7.8125C8.64323 7.9375 8.33333 8 8 8ZM8 4C7.78125 4 7.57292 4.04167 7.375 4.125C7.18229 4.20833 7.01302 4.32292 6.86719 4.46875C6.72135 4.61458 6.60677 4.78385 6.52344 4.97656C6.4401 5.16927 6.39844 5.3776 6.39844 5.60156C6.39844 5.82031 6.4401 6.02865 6.52344 6.22656C6.60677 6.41927 6.72135 6.58854 6.86719 6.73438C7.01302 6.875 7.18229 6.98958 7.375 7.07812C7.57292 7.16146 7.78125 7.20312 8 7.20312C8.21875 7.20312 8.42448 7.16146 8.61719 7.07812C8.8151 6.98958 8.98698 6.875 9.13281 6.73438C9.27865 6.58854 9.39323 6.41927 9.47656 6.22656C9.5599 6.02865 9.60156 5.82031 9.60156 5.60156C9.60156 5.3776 9.5599 5.16927 9.47656 4.97656C9.39323 4.78385 9.27865 4.61458 9.13281 4.46875C8.98698 4.32292 8.8151 4.20833 8.61719 4.125C8.42448 4.04167 8.21875 4 8 4ZM14.3125 63.9141C14.1042 63.9141 13.862 63.8984 13.5859 63.8672C13.3151 63.8307 13.0443 63.7786 12.7734 63.7109C12.5026 63.6432 12.2526 63.5625 12.0234 63.4688C11.7943 63.3698 11.6198 63.263 11.5 63.1484C11.3594 63.0026 11.263 62.8464 11.2109 62.6797C11.1589 62.5078 11.1198 62.349 11.0938 62.2031C11.0573 62.026 11.0234 61.9036 10.9922 61.8359C10.9609 61.763 10.9062 61.7083 10.8281 61.6719C10.6458 61.5938 10.4453 61.526 10.2266 61.4688C10.013 61.4062 9.78385 61.3542 9.53906 61.3125C9.29948 61.2708 9.04688 61.2396 8.78125 61.2188C8.52083 61.1979 8.25521 61.1875 7.98438 61.1875C7.71875 61.1875 7.45573 61.1979 7.19531 61.2188C6.9349 61.2396 6.6849 61.2708 6.44531 61.3125C6.20573 61.3542 5.97917 61.4036 5.76562 61.4609C5.55208 61.5182 5.35417 61.5859 5.17188 61.6641C5.09375 61.6953 5.03906 61.7474 5.00781 61.8203C4.97656 61.8932 4.94531 62.0182 4.91406 62.1953C4.88802 62.3411 4.84896 62.5 4.79688 62.6719C4.74479 62.8385 4.64583 62.9948 4.5 63.1406C4.36979 63.2708 4.1849 63.3828 3.94531 63.4766C3.70573 63.5651 3.48177 63.6354 3.27344 63.6875C3.00781 63.7552 2.73698 63.8073 2.46094 63.8438C2.1901 63.8802 1.9375 63.8984 1.70312 63.8984C1.4375 63.8984 1.21354 63.875 1.03125 63.8281C0.854167 63.776 0.713542 63.6979 0.609375 63.5938C0.453125 63.4375 0.325521 63.2578 0.226562 63.0547C0.132812 62.8464 0.078125 62.6328 0.0625 62.4141C0.046875 62.2318 0.0703125 62.0156 0.132812 61.7656C0.195312 61.5104 0.351562 61.2578 0.601562 61.0078C0.809896 60.8047 1.03385 60.612 1.27344 60.4297C1.51302 60.2474 1.76823 60.0781 2.03906 59.9219C2.3099 59.7604 2.59896 59.6146 2.90625 59.4844C3.21354 59.349 3.53646 59.224 3.875 59.1094C4.18229 59.0104 4.5 58.9219 4.82812 58.8438C5.16146 58.7656 5.5 58.7005 5.84375 58.6484C6.19271 58.5964 6.54427 58.5573 6.89844 58.5312C7.2526 58.5052 7.60677 58.4922 7.96094 58.4922C8.32552 58.4922 8.6849 58.5078 9.03906 58.5391C9.39844 58.5651 9.75 58.6042 10.0938 58.6562C10.4427 58.7083 10.7839 58.7734 11.1172 58.8516C11.4505 58.9297 11.7734 59.0182 12.0859 59.1172C12.4297 59.2318 12.7552 59.3568 13.0625 59.4922C13.375 59.6276 13.6667 59.776 13.9375 59.9375C14.2135 60.0938 14.4714 60.2656 14.7109 60.4531C14.9557 60.6354 15.1823 60.8281 15.3906 61.0312C15.599 61.2448 15.7448 61.4688 15.8281 61.7031C15.9167 61.9375 15.9531 62.1719 15.9375 62.4062C15.9271 62.6354 15.8724 62.8542 15.7734 63.0625C15.6797 63.2708 15.5547 63.4531 15.3984 63.6094C15.2943 63.7135 15.1536 63.7917 14.9766 63.8438C14.7995 63.8906 14.5781 63.9141 14.3125 63.9141ZM7.98438 60.3828C8.28646 60.3828 8.58073 60.3958 8.86719 60.4219C9.15885 60.4427 9.4375 60.4766 9.70312 60.5234C9.96875 60.5703 10.2214 60.6302 10.4609 60.7031C10.7057 60.7708 10.9323 60.849 11.1406 60.9375C11.4271 61.0625 11.612 61.2344 11.6953 61.4531C11.7786 61.6719 11.8385 61.8724 11.875 62.0547C11.8958 62.1641 11.9193 62.2656 11.9453 62.3594C11.9714 62.4479 12.013 62.5208 12.0703 62.5781C12.1172 62.6302 12.2188 62.6875 12.375 62.75C12.5365 62.8125 12.724 62.8724 12.9375 62.9297C13.151 62.9818 13.3776 63.026 13.6172 63.0625C13.862 63.099 14.0938 63.1172 14.3125 63.1172C14.5052 63.1172 14.638 63.1068 14.7109 63.0859C14.7891 63.0599 14.8307 63.0443 14.8359 63.0391C14.9609 62.9141 15.0599 62.7161 15.1328 62.4453C15.2109 62.1693 15.1068 61.888 14.8203 61.6016C14.4609 61.2422 14.0339 60.9193 13.5391 60.6328C13.0495 60.3464 12.5104 60.1042 11.9219 59.9062C11.3333 59.7083 10.7031 59.5573 10.0312 59.4531C9.36458 59.349 8.67448 59.2969 7.96094 59.2969C7.25781 59.2969 6.57292 59.349 5.90625 59.4531C5.24479 59.5521 4.6224 59.7005 4.03906 59.8984C3.45573 60.0964 2.91927 60.3359 2.42969 60.6172C1.94531 60.8984 1.52604 61.2161 1.17188 61.5703C1.05729 61.6849 0.973958 61.8099 0.921875 61.9453C0.869792 62.0755 0.848958 62.2109 0.859375 62.3516C0.869792 62.4714 0.901042 62.5911 0.953125 62.7109C1.01042 62.8307 1.08333 62.9349 1.17188 63.0234C1.17708 63.0286 1.21615 63.0443 1.28906 63.0703C1.36719 63.0911 1.50521 63.1016 1.70312 63.1016C1.92708 63.1016 2.15885 63.0833 2.39844 63.0469C2.63802 63.0104 2.86198 62.9661 3.07031 62.9141C3.28385 62.8568 3.46875 62.7995 3.625 62.7422C3.78125 62.6797 3.88542 62.6224 3.9375 62.5703C3.99479 62.513 4.03385 62.4401 4.05469 62.3516C4.08073 62.2578 4.10417 62.1562 4.125 62.0469C4.16146 61.8646 4.22135 61.6641 4.30469 61.4453C4.38802 61.2214 4.57292 61.0495 4.85938 60.9297C5.06771 60.8411 5.28906 60.763 5.52344 60.6953C5.76302 60.6276 6.01562 60.5703 6.28125 60.5234C6.54688 60.4766 6.82292 60.4427 7.10938 60.4219C7.39583 60.3958 7.6875 60.3828 7.98438 60.3828ZM13.2031 71.2031H2.79688C2.53125 71.2031 2.27865 71.151 2.03906 71.0469C1.79948 70.9427 1.58854 70.7969 1.40625 70.6094C1.22396 70.4167 1.08854 70.1979 1 69.9531C0.911458 69.7083 0.875 69.4505 0.890625 69.1797C0.890625 69.1641 0.898438 69.0703 0.914062 68.8984C0.934896 68.7214 0.979167 68.4948 1.04688 68.2188C1.11979 67.9375 1.22396 67.6224 1.35938 67.2734C1.49479 66.9193 1.67708 66.5573 1.90625 66.1875C2.04167 65.9688 2.1875 65.763 2.34375 65.5703C2.50521 65.3724 2.67448 65.1875 2.85156 65.0156C3.03385 64.8438 3.22396 64.6849 3.42188 64.5391C3.625 64.388 3.83594 64.25 4.05469 64.125C4.32552 63.974 4.61198 63.8411 4.91406 63.7266C5.21615 63.6068 5.53125 63.5104 5.85938 63.4375C6.19271 63.3594 6.53646 63.3021 6.89062 63.2656C7.25 63.224 7.61979 63.2031 8 63.2031C8.38021 63.2031 8.7474 63.224 9.10156 63.2656C9.46094 63.3021 9.80469 63.3594 10.1328 63.4375C10.4661 63.5104 10.7839 63.6068 11.0859 63.7266C11.388 63.8411 11.6745 63.974 11.9453 64.125C12.1641 64.25 12.3724 64.388 12.5703 64.5391C12.7734 64.6849 12.9635 64.8438 13.1406 65.0156C13.3229 65.1875 13.4922 65.3724 13.6484 65.5703C13.8099 65.763 13.9583 65.9688 14.0938 66.1875C14.3229 66.5573 14.5052 66.9193 14.6406 67.2734C14.776 67.6224 14.8776 67.9375 14.9453 68.2188C15.0182 68.4948 15.0625 68.7214 15.0781 68.8984C15.099 69.0703 15.1094 69.1641 15.1094 69.1797C15.125 69.4505 15.0885 69.7083 15 69.9531C14.9115 70.1979 14.776 70.4167 14.5938 70.6094C14.4115 70.7969 14.2005 70.9427 13.9609 71.0469C13.7214 71.151 13.4688 71.2031 13.2031 71.2031ZM8 64C7.375 64 6.79427 64.0547 6.25781 64.1641C5.72135 64.2734 5.22656 64.4375 4.77344 64.6562C4.32031 64.8698 3.91146 65.138 3.54688 65.4609C3.1875 65.7839 2.8724 66.1589 2.60156 66.5859C2.39323 66.9089 2.22917 67.2292 2.10938 67.5469C1.98958 67.8594 1.89844 68.1406 1.83594 68.3906C1.77344 68.6354 1.73177 68.8359 1.71094 68.9922C1.69531 69.1432 1.6875 69.2214 1.6875 69.2266C1.67708 69.3828 1.69792 69.5339 1.75 69.6797C1.80208 69.8203 1.88021 69.9453 1.98438 70.0547C2.08854 70.1641 2.21094 70.25 2.35156 70.3125C2.49219 70.3698 2.64062 70.3984 2.79688 70.3984H13.2031C13.3594 70.3984 13.5078 70.3698 13.6484 70.3125C13.7891 70.25 13.9115 70.1641 14.0156 70.0547C14.1198 69.9453 14.1979 69.8203 14.25 69.6797C14.3021 69.5339 14.3229 69.3828 14.3125 69.2266C14.3125 69.2214 14.3021 69.1432 14.2812 68.9922C14.2656 68.8359 14.2266 68.6354 14.1641 68.3906C14.1016 68.1406 14.0104 67.8594 13.8906 67.5469C13.7708 67.2292 13.6068 66.9089 13.3984 66.5859C13.1276 66.1589 12.8099 65.7839 12.4453 65.4609C12.0859 65.138 11.6797 64.8698 11.2266 64.6562C10.7734 64.4375 10.2786 64.2734 9.74219 64.1641C9.20573 64.0547 8.625 64 8 64ZM8 69.6016C7.66667 69.6016 7.35417 69.5391 7.0625 69.4141C6.77604 69.2839 6.52344 69.112 6.30469 68.8984C6.08594 68.6797 5.91406 68.4245 5.78906 68.1328C5.66406 67.8411 5.60156 67.5312 5.60156 67.2031C5.60156 66.8698 5.66406 66.5573 5.78906 66.2656C5.91406 65.974 6.08594 65.7214 6.30469 65.5078C6.52344 65.2891 6.77604 65.1172 7.0625 64.9922C7.35417 64.862 7.66667 64.7969 8 64.7969C8.33333 64.7969 8.64323 64.862 8.92969 64.9922C9.22135 65.1172 9.47656 65.2891 9.69531 65.5078C9.91406 65.7214 10.0859 65.974 10.2109 66.2656C10.3359 66.5573 10.3984 66.8698 10.3984 67.2031C10.3984 67.5312 10.3359 67.8411 10.2109 68.1328C10.0859 68.4245 9.91406 68.6797 9.69531 68.8984C9.47656 69.112 9.22135 69.2839 8.92969 69.4141C8.64323 69.5391 8.33333 69.6016 8 69.6016ZM8 65.6016C7.78125 65.6016 7.57292 65.6432 7.375 65.7266C7.18229 65.8099 7.01302 65.9245 6.86719 66.0703C6.72135 66.2161 6.60677 66.3854 6.52344 66.5781C6.4401 66.7708 6.39844 66.9792 6.39844 67.2031C6.39844 67.4219 6.4401 67.6302 6.52344 67.8281C6.60677 68.0208 6.72135 68.1901 6.86719 68.3359C7.01302 68.4766 7.18229 68.5885 7.375 68.6719C7.57292 68.7552 7.78125 68.7969 8 68.7969C8.21875 68.7969 8.42448 68.7552 8.61719 68.6719C8.8151 68.5885 8.98698 68.4766 9.13281 68.3359C9.27865 68.1901 9.39323 68.0208 9.47656 67.8281C9.5599 67.6302 9.60156 67.4219 9.60156 67.2031C9.60156 66.9792 9.5599 66.7708 9.47656 66.5781C9.39323 66.3854 9.27865 66.2161 9.13281 66.0703C8.98698 65.9245 8.8151 65.8099 8.61719 65.7266C8.42448 65.6432 8.21875 65.6016 8 65.6016ZM14 89.6016H1.20312C0.869792 89.6016 0.585938 89.7188 0.351562 89.9531C0.117188 90.1875 0 90.4688 0 90.7969V98C0 98.3333 0.117188 98.6172 0.351562 98.8516C0.585938 99.0859 0.869792 99.2031 1.20312 99.2031H14C14.3333 99.2031 14.6172 99.0859 14.8516 98.8516C15.0859 98.6172 15.2031 98.3333 15.2031 98V90.7969C15.2031 90.4688 15.0859 90.1875 14.8516 89.9531C14.6172 89.7188 14.3333 89.6016 14 89.6016ZM14 90.3984C14.0104 90.3984 14.0208 90.401 14.0312 90.4062C14.0469 90.4062 14.0599 90.4062 14.0703 90.4062L8.04688 94.4219C7.92708 94.5 7.77604 94.5391 7.59375 94.5391C7.41667 94.5391 7.27083 94.5 7.15625 94.4219L1.13281 90.4062C1.14323 90.4062 1.15365 90.4062 1.16406 90.4062C1.17448 90.401 1.1875 90.3984 1.20312 90.3984H14ZM14 98.3984H1.20312C1.08854 98.3984 0.992188 98.3594 0.914062 98.2812C0.835938 98.2031 0.796875 98.1094 0.796875 98V91.1484L6.71094 95.0859C6.83594 95.1693 6.97396 95.2318 7.125 95.2734C7.28125 95.3151 7.4401 95.3359 7.60156 95.3359C7.75781 95.3359 7.91406 95.3151 8.07031 95.2734C8.22656 95.2318 8.36458 95.1693 8.48438 95.0859L14.3984 91.1484V98C14.3984 98.1094 14.3594 98.2031 14.2812 98.2812C14.2031 98.3594 14.1094 98.3984 14 98.3984Z" fill="white"/>
</svg>
