<svg width="178" height="178" viewBox="0 0 178 178" fill="none" xmlns="http://www.w3.org/2000/svg">
<path d="M88.6 177.2C137.532 177.2 177.2 137.532 177.2 88.6C177.2 39.6676 137.532 0 88.6 0C39.6676 0 0 39.6676 0 88.6C0 137.532 39.6676 177.2 88.6 177.2Z" fill="#B50014"/>
<path d="M130.908 119.072C129.501 118.955 128.212 118.837 126.806 118.72C125.985 118.603 125.282 118.955 124.579 119.775C123.876 120.478 123.524 121.299 123.524 122.236C123.524 123.642 124.227 124.932 125.517 126.104C126.806 127.276 128.212 127.979 129.618 128.096C131.376 128.213 132.665 127.861 133.603 126.924C134.541 125.986 134.658 124.228 133.955 121.65C133.486 120.244 132.431 119.423 130.908 119.072Z" fill="white"/>
<path d="M137.588 97.7423C138.76 95.9843 138.057 93.7576 135.596 93.5232C134.189 93.406 133.369 92.9372 133.486 91.0621C133.603 86.0227 131.377 82.2724 127.509 79.3425C123.29 76.1782 118.368 75.3579 113.446 74.8891C109.813 74.5375 106.179 74.1859 102.195 73.3655C104.07 72.3108 105.711 71.4904 107.117 70.5529C111.805 67.7402 116.141 64.4587 119.774 60.1224C123.173 56.0206 124.11 49.4576 121.649 44.7698C118.954 39.496 114.149 38.324 108.992 38.4412C105.007 38.5584 101.023 39.496 97.3898 41.2539C88.8345 45.3558 80.9824 50.5124 73.599 56.6066C70.6691 59.0677 67.7392 61.4116 64.6921 63.9899C65.0437 61.8804 65.5125 60.1224 65.7469 58.2473C66.6845 52.6219 66.2157 47.1137 63.5202 42.0743C62.231 39.8476 60.4731 38.324 58.012 37.8552C56.9572 37.6208 56.254 37.9724 55.6681 38.91C55.1993 39.8476 54.8477 40.7851 55.5509 41.7227C56.0197 42.4259 56.4884 43.129 57.1916 43.5978C59.5355 45.473 60.3559 48.0513 60.4731 50.9812C60.9419 58.4817 58.012 65.0447 55.1993 71.7248C54.9649 72.1936 54.4961 72.5452 54.0273 73.014C51.449 75.5923 48.7535 77.9362 46.4096 80.6317C42.0734 85.5539 37.7371 90.5933 35.276 96.9219C33.0493 102.782 34.9244 110.868 39.6122 114.618C41.4874 116.142 43.7141 116.025 45.472 114.384C46.9956 112.978 47.9331 111.103 48.8707 109.227C59.0667 88.601 71.8411 70.0841 88.2485 54.2626C93.1707 49.5748 98.7961 46.1761 105.476 45.0042C109.227 44.301 113.563 48.52 113.797 51.9187C114.032 56.7237 111.453 59.7708 108.406 62.5835C103.718 66.8026 98.3273 69.6153 92.7019 72.1936C89.772 73.4827 87.0765 74.8891 84.6154 76.9986C82.0371 79.2253 80.8652 82.1552 81.8027 85.6711C82.6231 88.9526 85.0842 90.0074 87.8969 90.2417C95.2802 90.7105 102.664 90.9449 110.047 91.4137C113.094 91.6481 116.258 91.6481 118.719 94.2264C118.485 94.6952 118.133 94.6952 117.782 94.8124C102.429 97.8595 87.3109 101.961 72.8958 108.524C69.966 109.813 67.3876 111.571 65.1609 113.915C61.4107 117.783 61.1763 123.877 66.6845 127.158C73.013 130.791 79.576 130.088 86.139 129.034C97.9757 127.158 108.641 121.65 118.602 114.853C123.876 111.22 128.095 106.649 131.142 101.024C131.963 99.5002 132.783 98.5626 134.658 98.9142C135.596 98.9142 136.885 98.9142 137.588 97.7423ZM119.891 101.493C119.188 104.422 117.196 106.649 115.086 108.407C105.945 115.673 96.1006 121.299 84.6154 123.291C83.2091 123.525 81.9199 123.525 80.5136 123.643C78.99 123.643 77.4665 123.643 76.0601 123.057C73.4818 122.002 72.6615 119.775 73.7162 117.197C74.4194 115.673 75.4742 114.501 76.8805 113.564C83.3263 109.345 90.5924 107.47 97.6242 105.126C104.422 102.899 111.336 101.375 118.368 99.7346C119.891 99.5002 120.126 100.086 119.891 101.493Z" fill="white"/>
<path d="M58.5979 146.143C59.887 143.916 58.7151 142.041 56.1368 140.518L52.8553 138.525L45.7063 150.714L48.9878 152.589C51.4489 154.112 54.0272 154.698 55.5508 152.12C56.6055 150.362 56.0196 148.604 54.496 147.549C56.1368 148.135 57.5431 147.784 58.5979 146.143ZM53.6756 150.948C52.7381 152.589 51.0973 152.12 49.5738 151.183L48.2846 150.362L50.7457 146.26L51.9177 146.963C53.2069 147.784 54.7304 149.073 53.6756 150.948ZM52.3865 145.44L51.4489 144.854L53.6756 141.104L55.5508 142.158C56.6055 142.744 57.5431 143.916 56.7227 145.323C55.668 147.081 54.1444 146.378 52.3865 145.44Z" fill="white"/>
<path d="M66.5672 145.676L63.2857 144.504L58.3635 157.747L60.2387 158.45L62.4654 152.591L63.6373 153.059C64.6921 153.411 65.2781 153.645 65.3953 155.169L65.7469 160.56L67.8564 161.38L67.2704 155.169C67.1532 154.231 67.036 153.763 66.45 153.411C68.0908 153.763 69.7315 153.059 70.3175 151.419C71.4895 148.02 69.1455 146.614 66.5672 145.676ZM68.3252 150.481C67.8564 151.77 66.45 152.122 64.6921 151.536L63.0514 150.95L64.5749 146.965L66.45 147.668C68.0908 148.137 68.7939 149.309 68.3252 150.481Z" fill="white"/>
<path d="M96.3349 149.542L85.5529 149.894V151.652L90.0063 151.535L90.4751 163.957L92.4674 163.84L91.9987 151.417L96.4521 151.3L96.3349 149.542Z" fill="white"/>
<path d="M106.531 147.198L107.937 152.94L101.257 154.581L99.9681 148.721L97.9758 149.19L101.257 163.019L103.25 162.55L101.726 156.222L108.289 154.698L109.813 161.027L111.805 160.558L108.523 146.729L106.531 147.198Z" fill="white"/>
<path d="M78.9898 149.073L70.7861 162.082L72.8956 162.433L74.888 159.152L81.8025 160.207L82.6229 163.957L84.8496 164.308L81.0993 149.425L78.9898 149.073ZM75.8255 157.511L79.693 151.065L81.3337 158.449L75.8255 157.511Z" fill="white"/>
<path d="M127.392 149.777C126.923 150.011 126.806 150.714 127.04 151.183C127.275 151.535 127.626 151.652 127.861 151.652C128.095 151.652 128.212 151.652 128.447 151.535C128.915 151.183 129.033 150.597 128.798 150.128C128.564 149.542 127.861 149.425 127.392 149.777Z" fill="white"/>
<path d="M132.431 146.261C131.962 146.613 131.845 147.199 132.197 147.668C132.431 147.902 132.665 148.019 133.017 148.019C133.251 148.019 133.486 147.902 133.603 147.785C134.072 147.433 134.189 146.847 133.837 146.379C133.603 146.027 132.9 145.91 132.431 146.261Z" fill="white"/>
<path d="M137.236 142.395C136.767 142.746 136.767 143.449 137.119 143.801C137.353 144.035 137.588 144.153 137.939 144.153C138.174 144.153 138.408 144.035 138.643 143.918C139.111 143.567 139.111 142.863 138.76 142.512C138.291 142.043 137.588 141.926 137.236 142.395Z" fill="white"/>
<path d="M162.433 93.1714C161.847 93.1714 161.378 93.523 161.378 94.109C161.378 94.6949 161.73 95.1637 162.316 95.1637C162.316 95.1637 162.316 95.1637 162.433 95.1637C162.902 95.1637 163.371 94.8121 163.488 94.2262C163.371 93.6402 163.019 93.1714 162.433 93.1714Z" fill="white"/>
<path d="M153.878 122.821C153.409 122.587 152.706 122.704 152.472 123.173C152.237 123.641 152.354 124.227 152.823 124.579C152.94 124.696 153.175 124.696 153.292 124.696C153.644 124.696 153.995 124.462 154.23 124.11C154.581 123.759 154.347 123.173 153.878 122.821Z" fill="white"/>
<path d="M156.573 117.197C156.105 116.963 155.401 117.197 155.167 117.666C154.933 118.135 155.167 118.72 155.753 119.072C155.87 119.072 155.987 119.189 156.105 119.189C156.456 119.189 156.925 118.955 157.042 118.603C157.277 118.134 157.042 117.431 156.573 117.197Z" fill="white"/>
<path d="M160.441 105.477C159.855 105.36 159.386 105.711 159.152 106.18C159.035 106.766 159.386 107.235 159.855 107.469C159.972 107.469 159.972 107.469 160.089 107.469C160.558 107.469 160.91 107.118 161.027 106.649C161.378 106.18 161.027 105.594 160.441 105.477Z" fill="white"/>
<path d="M150.714 128.212C150.245 127.86 149.542 127.977 149.307 128.446C148.956 128.915 149.073 129.501 149.542 129.852C149.659 129.97 149.893 129.97 150.128 129.97C150.479 129.97 150.831 129.852 150.948 129.501C151.3 129.149 151.183 128.563 150.714 128.212Z" fill="white"/>
<path d="M158.8 111.455C158.214 111.221 157.628 111.572 157.511 112.041C157.277 112.627 157.628 113.096 158.097 113.33C158.214 113.33 158.332 113.33 158.449 113.33C158.918 113.33 159.269 113.096 159.386 112.627C159.621 112.158 159.269 111.572 158.8 111.455Z" fill="white"/>
<path d="M161.73 99.3833C161.144 99.2661 160.676 99.6177 160.558 100.204C160.441 100.79 160.793 101.258 161.379 101.376H161.496C161.965 101.376 162.433 101.024 162.551 100.555C162.668 99.9693 162.199 99.5005 161.73 99.3833Z" fill="white"/>
<path d="M147.081 133.253C146.612 132.901 146.026 133.019 145.674 133.37C145.323 133.839 145.44 134.425 145.792 134.777C146.026 134.894 146.143 135.011 146.378 135.011C146.612 135.011 146.964 134.894 147.198 134.659C147.549 134.308 147.549 133.605 147.081 133.253Z" fill="white"/>
<path d="M141.572 138.058C141.221 138.409 141.221 139.112 141.572 139.464C141.807 139.698 142.041 139.698 142.276 139.698C142.51 139.698 142.862 139.581 142.979 139.347C143.33 138.878 143.33 138.292 142.979 137.94C142.627 137.589 142.041 137.589 141.572 138.058Z" fill="white"/>
<path d="M94.5768 15.2372C94.694 15.2372 94.694 15.2372 94.5768 15.2372C95.1628 15.2372 95.6316 14.8856 95.6316 14.2996C95.6316 13.7137 95.28 13.2449 94.694 13.2449C94.1081 13.2449 93.6393 13.5965 93.6393 14.1824C93.6393 14.6512 93.9909 15.12 94.5768 15.2372Z" fill="white"/>
<path d="M38.4401 34.4565C38.6745 34.4565 38.9089 34.3393 39.1433 34.2221C39.4948 33.8705 39.612 33.1674 39.1433 32.8158C38.7917 32.4642 38.0885 32.347 37.7369 32.8158C37.2681 33.1674 37.2681 33.8705 37.7369 34.2221C37.8541 34.3393 38.2057 34.4565 38.4401 34.4565Z" fill="white"/>
<path d="M64.4576 18.9867C64.5748 18.9867 64.692 18.9867 64.8092 18.9867C65.3951 18.7523 65.6295 18.1663 65.3951 17.6975C65.1607 17.1115 64.5748 16.8772 64.106 17.1115C63.52 17.3459 63.2856 17.9319 63.52 18.4007C63.6372 18.6351 64.106 18.9867 64.4576 18.9867Z" fill="white"/>
<path d="M82.3886 15.2372C82.5058 15.2372 82.5058 15.2372 82.3886 15.2372C83.0918 15.2372 83.4434 14.6512 83.4434 14.1824C83.4434 13.5965 82.8574 13.2449 82.3886 13.2449C81.8026 13.2449 81.451 13.8309 81.451 14.2996C81.451 14.7684 81.9198 15.2372 82.3886 15.2372Z" fill="white"/>
<path d="M76.4115 15.9393H76.5287C77.1147 15.8221 77.4663 15.3534 77.3491 14.7674C77.2319 14.1814 76.7631 13.8298 76.1771 13.947C75.5912 14.0642 75.2396 14.533 75.3568 15.119C75.474 15.5878 75.8255 15.9393 76.4115 15.9393Z" fill="white"/>
<path d="M70.4347 17.2282C70.5519 17.2282 70.5519 17.2282 70.6691 17.2282C71.2551 17.111 71.4895 16.525 71.3723 15.939C71.2551 15.353 70.6691 15.1186 70.0831 15.2358C69.4971 15.353 69.2627 15.939 69.3799 16.525C69.4971 16.8766 69.9659 17.2282 70.4347 17.2282Z" fill="white"/>
<path d="M58.8323 21.2133C58.9494 21.2133 59.0666 21.2133 59.301 21.0961C59.7698 20.8618 60.0042 20.2758 59.887 19.807C59.6526 19.221 59.0666 19.1038 58.4807 19.221C58.0119 19.4554 57.7775 20.0414 57.8947 20.6274C58.0119 20.979 58.4807 21.2133 58.8323 21.2133Z" fill="white"/>
<path d="M43.128 30.5896C43.3624 30.5896 43.5967 30.4724 43.7139 30.3552C44.1827 30.0036 44.2999 29.4176 43.9483 28.9489C43.5967 28.4801 42.8936 28.4801 42.542 28.8317C42.0732 29.1833 41.956 29.7692 42.4248 30.238C42.542 30.3552 42.7764 30.5896 43.128 30.5896Z" fill="white"/>
<path d="M15.3527 76.7645H15.4698C15.9386 76.7645 16.4074 76.413 16.5246 75.9442C16.6418 75.3582 16.2902 74.8894 15.7042 74.7722C15.1183 74.655 14.6495 75.0066 14.5323 75.5926C14.4151 76.0614 14.7667 76.6473 15.3527 76.7645Z" fill="white"/>
<path d="M16.5247 70.6696C16.6419 70.6696 16.6419 70.6696 16.7591 70.6696C17.2279 70.6696 17.5795 70.318 17.8138 69.8492C17.931 69.2632 17.5795 68.7945 17.1107 68.5601C16.5247 68.4429 16.0559 68.7945 15.8215 69.2632C15.7043 70.0836 15.9387 70.5524 16.5247 70.6696Z" fill="white"/>
<path d="M53.3241 23.7916C53.4413 23.7916 53.6757 23.7916 53.7929 23.6744C54.2617 23.44 54.4961 22.854 54.2617 22.268C54.0273 21.7992 53.3241 21.5648 52.8553 21.7992C52.3865 22.0336 52.1521 22.7368 52.3865 23.2056C52.6209 23.6744 52.9725 23.7916 53.3241 23.7916Z" fill="white"/>
<path d="M48.0503 26.9565C48.2847 26.9565 48.4019 26.9565 48.6363 26.8393C49.105 26.4877 49.2222 25.9017 48.9878 25.433C48.6363 24.9642 48.0503 24.847 47.5815 25.1986C47.1127 25.5502 46.9955 26.1361 47.3471 26.6049C47.4643 26.8393 47.6987 26.9565 48.0503 26.9565Z" fill="white"/>
<path d="M34.1038 38.7926C34.3382 38.7926 34.6898 38.6754 34.807 38.441C35.1586 37.9723 35.1586 37.3863 34.807 37.0347C34.3382 36.6831 33.7522 36.6831 33.4007 37.0347C33.0491 37.5035 33.0491 38.0894 33.4007 38.441C33.635 38.7926 33.8694 38.7926 34.1038 38.7926Z" fill="white"/>
<path d="M158.566 64.9264C158.683 64.9264 158.8 64.9264 158.917 64.9264C159.503 64.692 159.738 64.106 159.503 63.6372C159.269 63.0512 158.683 62.8169 158.214 63.0512C157.628 63.2856 157.394 63.7544 157.628 64.3404C157.745 64.692 158.214 64.9264 158.566 64.9264Z" fill="white"/>
<path d="M133.369 30.3547C133.603 30.4719 133.838 30.5891 133.955 30.5891C134.189 30.5891 134.541 30.4719 134.775 30.2375C135.127 29.7687 135.01 29.1827 134.541 28.8311C134.072 28.4796 133.486 28.5967 133.135 29.0655C132.9 29.2999 132.9 30.0031 133.369 30.3547Z" fill="white"/>
<path d="M159.386 69.9676C159.503 70.4364 159.972 70.788 160.324 70.788C160.441 70.788 160.558 70.788 160.558 70.788C161.144 70.6708 161.378 70.0848 161.261 69.4988C161.144 68.9129 160.558 68.6785 159.972 68.7957C159.503 68.9129 159.152 69.4988 159.386 69.9676Z" fill="white"/>
<path d="M160.558 75.9442C160.676 76.413 161.027 76.7645 161.613 76.7645H161.73C162.316 76.6473 162.668 76.1786 162.551 75.5926C162.433 75.0066 161.965 74.655 161.379 74.7722C160.793 74.8894 160.441 75.3582 160.558 75.9442Z" fill="white"/>
<path d="M161.261 81.9207C161.261 82.5067 161.73 82.8583 162.316 82.8583C162.316 82.8583 162.316 82.8583 162.433 82.8583C163.019 82.8583 163.371 82.2723 163.371 81.8035C163.371 81.2176 162.785 80.866 162.199 80.866C161.73 80.866 161.261 81.3348 161.261 81.9207Z" fill="white"/>
<path d="M106.531 17.1122C106.648 17.1122 106.648 17.1122 106.765 17.1122C107.234 17.1122 107.586 16.7606 107.703 16.2918C107.82 15.7059 107.468 15.2371 107 15.0027C106.414 14.8855 105.945 15.2371 105.828 15.7059C105.593 16.5262 105.945 16.995 106.531 17.1122Z" fill="white"/>
<path d="M100.554 15.9393H100.671C101.14 15.9393 101.609 15.5878 101.726 15.119C101.843 14.533 101.492 14.0642 100.906 13.947C100.32 13.8298 99.8508 14.1814 99.7336 14.7674C99.6164 15.3534 100.085 15.8221 100.554 15.9393Z" fill="white"/>
<path d="M112.274 18.8684C112.391 18.8684 112.508 18.9856 112.625 18.9856C113.094 18.9856 113.446 18.7512 113.563 18.2825C113.797 17.6965 113.446 17.1105 112.977 16.9933C112.391 16.7589 111.805 17.1105 111.688 17.5793C111.453 18.1653 111.688 18.7512 112.274 18.8684Z" fill="white"/>
<path d="M123.29 23.7912C123.407 23.9084 123.641 23.9084 123.759 23.9084C124.11 23.9084 124.462 23.674 124.696 23.3224C124.931 22.8536 124.813 22.1504 124.227 21.916C123.759 21.6816 123.055 21.7988 122.821 22.2676C122.587 22.8536 122.821 23.4396 123.29 23.7912Z" fill="white"/>
<path d="M128.447 26.8376C128.564 26.9548 128.798 26.9548 129.033 26.9548C129.384 26.9548 129.736 26.8376 129.853 26.486C130.205 26.0172 130.087 25.3141 129.619 25.0797C129.15 24.7281 128.564 24.8453 128.212 25.3141C127.861 25.9 127.978 26.486 128.447 26.8376Z" fill="white"/>
<path d="M117.899 21.097C118.016 21.097 118.133 21.2142 118.25 21.2142C118.602 21.2142 119.071 20.9798 119.188 20.6282C119.422 20.1595 119.188 19.4563 118.719 19.2219C118.25 18.9875 117.547 19.2219 117.313 19.8079C117.196 20.2767 117.43 20.8626 117.899 21.097Z" fill="white"/>
<path d="M18.8684 62.9354C18.2825 62.7011 17.6965 63.0526 17.5793 63.5214C17.3449 64.1074 17.6965 64.6934 18.1653 64.8106C18.2825 64.8106 18.3996 64.8106 18.5168 64.8106C18.9856 64.8106 19.3372 64.5762 19.4544 64.1074C19.6888 63.6386 19.3372 63.0526 18.8684 62.9354Z" fill="white"/>
<path d="M30.8226 41.606C30.3538 41.2545 29.7678 41.3716 29.4162 41.8404C29.0646 42.3092 29.1818 42.8952 29.5334 43.2468C29.7678 43.364 30.0022 43.4812 30.1194 43.4812C30.3538 43.4812 30.7054 43.364 30.9398 43.1296C31.2914 42.6608 31.1742 41.9576 30.8226 41.606Z" fill="white"/>
<path d="M155.987 57.3104C155.519 57.5448 155.284 58.1308 155.402 58.5996C155.519 58.9512 155.987 59.1855 156.339 59.1855C156.456 59.1855 156.573 59.1855 156.691 59.0684C157.159 58.834 157.394 58.248 157.159 57.662C157.042 57.3104 156.456 57.076 155.987 57.3104Z" fill="white"/>
<path d="M153.175 51.8014C152.706 52.0358 152.472 52.6218 152.823 53.2078C153.058 53.5594 153.409 53.7937 153.761 53.7937C153.878 53.7937 154.113 53.7937 154.23 53.6765C154.698 53.4422 154.933 52.739 154.581 52.2702C154.347 51.6842 153.644 51.567 153.175 51.8014Z" fill="white"/>
<path d="M14.6494 82.8583C14.7666 82.8583 14.7666 82.8583 14.6494 82.8583C15.2354 82.8583 15.7042 82.5067 15.7042 81.9207C15.7042 81.3348 15.3526 80.866 14.7666 80.866C14.1806 80.866 13.7118 81.2176 13.7118 81.8035C13.7118 82.2723 14.1806 82.7411 14.6494 82.8583Z" fill="white"/>
<path d="M146.378 41.7233C145.909 42.0749 145.792 42.6608 146.143 43.1296C146.378 43.364 146.612 43.4812 146.964 43.4812C147.198 43.4812 147.432 43.364 147.55 43.2468C148.018 42.8952 148.018 42.3093 147.784 41.8405C147.432 41.3717 146.729 41.3717 146.378 41.7233Z" fill="white"/>
<path d="M142.276 37.0353C141.807 37.3869 141.807 38.09 142.276 38.4416C142.51 38.676 142.745 38.7932 142.979 38.7932C143.213 38.7932 143.448 38.676 143.682 38.5588C144.034 38.2072 144.151 37.5041 143.682 37.1525C143.331 36.6837 142.745 36.6837 142.276 37.0353Z" fill="white"/>
<path d="M23.908 51.8008C23.4393 51.5664 22.7361 51.6836 22.5017 52.1524C22.2673 52.6212 22.3845 53.3243 22.8533 53.5587C22.9705 53.6759 23.2049 53.6759 23.3221 53.6759C23.6736 53.6759 24.0252 53.4415 24.2596 53.0899C24.6112 52.6212 24.3768 52.0352 23.908 51.8008Z" fill="white"/>
<path d="M150.01 46.6443C149.542 46.9959 149.424 47.5819 149.776 48.0507C150.01 48.285 150.245 48.5194 150.596 48.5194C150.831 48.5194 150.948 48.5194 151.182 48.4022C151.651 48.0507 151.768 47.4647 151.417 46.9959C151.065 46.4099 150.479 46.2927 150.01 46.6443Z" fill="white"/>
<path d="M27.1895 46.6441C26.7207 46.2925 26.1348 46.4097 25.7832 46.8785C25.4316 47.3473 25.5488 47.9333 26.0176 48.2849C26.252 48.4021 26.3692 48.4021 26.6036 48.4021C26.9551 48.4021 27.3067 48.2849 27.4239 47.9333C27.7755 47.5817 27.6583 46.8785 27.1895 46.6441Z" fill="white"/>
<path d="M21.2125 57.1916C20.7437 56.9572 20.0406 57.1916 19.9234 57.7776C19.689 58.2464 19.9234 58.9496 20.3922 59.184C20.5094 59.184 20.6265 59.3011 20.8609 59.3011C21.2125 59.3011 21.6813 59.0668 21.7985 58.7152C21.9157 58.1292 21.6813 57.426 21.2125 57.1916Z" fill="white"/>
<path d="M139.346 32.6976C138.877 32.346 138.291 32.3461 137.94 32.8148C137.588 33.2836 137.588 33.8696 137.94 34.2212C138.174 34.4556 138.408 34.4556 138.643 34.4556C138.877 34.4556 139.229 34.3384 139.346 34.104C139.815 33.7524 139.815 33.1664 139.346 32.6976Z" fill="white"/>
<path d="M18.048 110.752C17.462 110.986 17.2276 111.455 17.462 112.041C17.5792 112.51 18.048 112.744 18.3996 112.744C18.5168 112.744 18.634 112.744 18.7512 112.744C19.3371 112.627 19.5715 112.041 19.3371 111.455C19.2199 110.752 18.634 110.517 18.048 110.752Z" fill="white"/>
<path d="M17.6964 105.594C17.5792 105.008 16.9933 104.773 16.5245 104.891C15.9385 105.008 15.5869 105.594 15.8213 106.18C15.9385 106.649 16.4073 107 16.7589 107C16.8761 107 16.8761 107 16.9933 107C17.5792 106.766 17.8136 106.18 17.6964 105.594Z" fill="white"/>
<path d="M32.932 136.768C32.5804 137.12 32.4632 137.823 32.8148 138.175C33.0492 138.409 33.2836 138.526 33.6352 138.526C33.8695 138.526 34.1039 138.409 34.3383 138.292C34.8071 137.94 34.8071 137.237 34.4555 136.886C33.9867 136.417 33.4008 136.417 32.932 136.768Z" fill="white"/>
<path d="M14.8839 94.9303C15.4699 94.9303 15.8215 94.3443 15.8215 93.8755C15.8215 93.2896 15.2355 92.938 14.7667 92.938C14.1807 92.938 13.8291 93.524 13.8291 93.9927C13.8291 94.5787 14.2979 94.9303 14.8839 94.9303C14.7667 94.9303 14.7667 94.9303 14.8839 94.9303Z" fill="white"/>
<path d="M16.5246 99.7344C16.5246 99.8516 16.5246 99.8516 16.5246 99.7344C16.4074 99.1484 15.9386 98.7969 15.3527 98.9141C14.7667 99.0313 14.4151 99.5 14.5323 100.086C14.6495 100.555 15.1183 100.906 15.587 100.906H15.7042C16.173 100.906 16.6418 100.32 16.5246 99.7344Z" fill="white"/>
<path d="M29.1818 132.081C28.713 132.433 28.5958 133.019 28.9474 133.488C29.1818 133.722 29.4162 133.839 29.7678 133.839C30.0022 133.839 30.2366 133.722 30.3538 133.605C30.8225 133.253 30.9397 132.667 30.5882 132.198C30.2366 131.847 29.5334 131.73 29.1818 132.081Z" fill="white"/>
<path d="M20.1576 116.375C19.5716 116.61 19.3372 117.196 19.5716 117.664C19.6888 118.016 20.1576 118.25 20.5092 118.25C20.6264 118.25 20.7436 118.25 20.8608 118.133C21.3295 117.899 21.5639 117.313 21.4467 116.844C21.3295 116.375 20.7436 116.141 20.1576 116.375Z" fill="white"/>
<path d="M25.7832 127.159C25.3144 127.511 25.1972 128.097 25.4316 128.566C25.666 128.917 26.0176 129.034 26.2519 129.034C26.4863 129.034 26.6035 129.034 26.8379 128.917C27.3067 128.566 27.4239 127.98 27.1895 127.511C26.8379 126.925 26.2519 126.808 25.7832 127.159Z" fill="white"/>
<path d="M22.7361 121.885C22.2673 122.119 22.0329 122.705 22.2673 123.291C22.5017 123.643 22.8533 123.877 23.2048 123.877C23.322 123.877 23.5564 123.877 23.6736 123.76C24.1424 123.525 24.3768 122.939 24.1424 122.353C23.908 121.767 23.2048 121.533 22.7361 121.885Z" fill="white"/>
<path d="M162.668 86.9592C162.082 86.9592 161.613 87.428 161.613 88.014C161.613 88.6 162.082 89.0688 162.668 89.0688C163.254 89.0688 163.722 88.6 163.722 88.014C163.605 87.3108 163.254 86.9592 162.668 86.9592Z" fill="white"/>
<path d="M122.587 154.817C123.169 154.817 123.641 154.345 123.641 153.763C123.641 153.18 123.169 152.708 122.587 152.708C122.004 152.708 121.532 153.18 121.532 153.763C121.532 154.345 122.004 154.817 122.587 154.817Z" fill="white"/>
<path d="M14.5324 88.9518C15.1183 88.9518 15.5871 88.483 15.5871 87.897C15.5871 87.3111 15.1183 86.8423 14.5324 86.8423C13.9464 86.8423 13.4776 87.3111 13.4776 87.897C13.4776 88.483 13.9464 88.9518 14.5324 88.9518Z" fill="white"/>
<path d="M88.5999 15.0019C89.1859 15.0019 89.6547 14.5331 89.6547 13.9471C89.6547 13.3611 89.1859 12.8923 88.5999 12.8923C88.0139 12.8923 87.5452 13.3611 87.5452 13.9471C87.5452 14.5331 88.0139 15.0019 88.5999 15.0019Z" fill="white"/>
<path d="M37.2682 141.104C36.9166 141.455 36.7994 142.159 37.151 142.51C37.3854 142.745 37.6197 142.862 37.9713 142.862C38.2057 142.862 38.4401 142.745 38.6745 142.627C39.1433 142.276 39.1433 141.573 38.7917 141.221C38.3229 140.752 37.6197 140.752 37.2682 141.104Z" fill="white"/>
</svg>
