<svg width="32" height="32" viewBox="0 0 32 32" fill="none" xmlns="http://www.w3.org/2000/svg">
<path d="M26.7642 4.89551C26.0229 4.1543 25.2227 3.49902 24.3633 2.92969C23.5146 2.36035 22.6177 1.88232 21.6724 1.49561C20.7378 1.09814 19.7656 0.802734 18.7559 0.609375C17.7461 0.405273 16.7202 0.303223 15.6782 0.303223C14.6255 0.303223 13.5942 0.405273 12.5845 0.609375C11.5854 0.802734 10.6133 1.09814 9.66797 1.49561C8.7334 1.88232 7.83643 2.36035 6.97705 2.92969C6.12842 3.49902 5.3335 4.1543 4.59229 4.89551C3.85107 5.63672 3.1958 6.43701 2.62646 7.29639C2.05713 8.14502 1.57373 9.04199 1.17627 9.9873C0.789551 10.9219 0.494141 11.894 0.290039 12.9038C0.0966797 13.9028 0 14.9287 0 15.9814C0 17.0234 0.0966797 18.0493 0.290039 19.0591C0.494141 20.0688 0.789551 21.041 1.17627 21.9756C1.57373 22.9102 2.05713 23.8071 2.62646 24.6665C3.1958 25.5259 3.85107 26.3208 4.59229 27.0513C5.3335 27.7925 6.12842 28.4531 6.97705 29.0332C7.83643 29.6025 8.7334 30.0806 9.66797 30.4673C10.6133 30.854 11.5854 31.144 12.5845 31.3374C13.5942 31.5415 14.6255 31.6436 15.6782 31.6436C16.7202 31.6436 17.7461 31.5415 18.7559 31.3374C19.7656 31.144 20.7378 30.854 21.6724 30.4673C22.6177 30.0806 23.5146 29.6025 24.3633 29.0332C25.2227 28.4531 26.0229 27.7925 26.7642 27.0513C27.5054 26.3208 28.1606 25.5259 28.73 24.6665C29.2993 23.8071 29.7773 22.9102 30.1641 21.9756C30.5508 21.041 30.8462 20.0688 31.0503 19.0591C31.2544 18.0493 31.3564 17.0234 31.3564 15.9814C31.3564 14.9287 31.2544 13.9028 31.0503 12.9038C30.8462 11.894 30.5508 10.9219 30.1641 9.9873C29.7773 9.04199 29.2993 8.14502 28.73 7.29639C28.1606 6.43701 27.5054 5.63672 26.7642 4.89551ZM15.6782 30C13.7446 30 11.9238 29.6348 10.2158 28.9043C8.51855 28.1631 7.03076 27.1587 5.75244 25.8911C4.48486 24.6235 3.48047 23.1411 2.73926 21.4438C2.00879 19.7358 1.64355 17.915 1.64355 15.9814C1.64355 14.0479 2.00879 12.2324 2.73926 10.5352C3.48047 8.82715 4.48486 7.33936 5.75244 6.07178C7.03076 4.79346 8.51855 3.78906 10.2158 3.05859C11.9238 2.31738 13.7446 1.94678 15.6782 1.94678C17.6118 1.94678 19.4272 2.31738 21.1245 3.05859C22.8325 3.78906 24.3203 4.79346 25.5879 6.07178C26.8555 7.33936 27.8545 8.82715 28.585 10.5352C29.3262 12.2324 29.6968 14.0479 29.6968 15.9814C29.6968 17.915 29.3262 19.7358 28.585 21.4438C27.8545 23.1411 26.8555 24.6235 25.5879 25.8911C24.3203 27.1587 22.8325 28.1631 21.1245 28.9043C19.4272 29.6348 17.6118 30 15.6782 30ZM13.1968 25.0532C13.0894 25.0532 12.9819 25.0317 12.8745 24.9888C12.7778 24.9458 12.6919 24.8867 12.6167 24.8115C12.4556 24.6504 12.375 24.457 12.375 24.2314C12.375 23.9951 12.4556 23.7964 12.6167 23.6353L20.2866 15.9814L12.6167 8.31152C12.4556 8.15039 12.375 7.95703 12.375 7.73145C12.375 7.49512 12.4556 7.29639 12.6167 7.13525C12.7778 6.97412 12.9712 6.89355 13.1968 6.89355C13.4224 6.89355 13.6157 6.97412 13.7769 7.13525L22.0269 15.3853C22.188 15.5464 22.2686 15.7451 22.2686 15.9814C22.2686 16.207 22.188 16.4004 22.0269 16.5615L13.7769 24.8115C13.7017 24.8867 13.6104 24.9458 13.5029 24.9888C13.4062 25.0317 13.3042 25.0532 13.1968 25.0532Z" fill="white"/>
</svg>
