<svg width="24" height="28" viewBox="0 0 24 28" fill="none" xmlns="http://www.w3.org/2000/svg">
<g clip-path="url(#clip0_1_131)">
<path d="M6.34216 14.3457C6.34216 13.5933 5.8354 13.1409 4.93995 13.1409C4.57587 13.1409 4.32986 13.1765 4.19702 13.212V15.6318C4.34954 15.6674 4.5365 15.6775 4.79727 15.6775C5.75176 15.6826 6.34216 15.1844 6.34216 14.3457Z" fill="white"/>
<path d="M11.8771 13.1663C11.4786 13.1663 11.2178 13.2018 11.0653 13.2374V18.6056C11.2178 18.6412 11.4638 18.6412 11.6902 18.6412C13.3138 18.6514 14.3765 17.7313 14.3765 15.769C14.3814 14.066 13.4171 13.1663 11.8771 13.1663Z" fill="white"/>
<path d="M22.4797 10.0145H21.8303V6.77124C21.8303 6.75091 21.8253 6.73057 21.8253 6.71024C21.8253 6.58315 21.786 6.45606 21.6974 6.35439L16.4723 0.18809C16.4723 0.18809 16.4674 0.18809 16.4674 0.183007C16.4379 0.147422 16.3985 0.116921 16.3592 0.0915033C16.3493 0.0813362 16.3346 0.0762527 16.3247 0.0711692C16.2903 0.0508352 16.2558 0.0355846 16.2214 0.0254176C16.2116 0.0203341 16.2017 0.0203341 16.1919 0.0152505C16.1525 0.00508352 16.1132 0 16.0689 0H3.22755C2.64699 0 2.16974 0.493101 2.16974 1.09804V10.0145H1.5203C0.678967 10.0145 0 10.716 0 11.5853V19.7444C0 20.6086 0.678967 21.3152 1.5203 21.3152H2.16974V26.902C2.16974 27.5069 2.64699 28 3.23247 28H20.7675C21.353 28 21.8303 27.5069 21.8303 26.902V21.3152H22.4797C23.3161 21.3152 24 20.6137 24 19.7444V11.5853C24 10.716 23.321 10.0145 22.4797 10.0145ZM3.23247 1.09804H15.5424V6.71532C15.5424 7.02033 15.7786 7.26434 16.0738 7.26434H20.7675V10.0145H3.23247V1.09804ZM16.2804 15.7081C16.2804 17.2789 15.7294 18.3617 14.9619 19.0276C14.1255 19.7444 12.8561 20.085 11.3014 20.085C10.3715 20.085 9.71218 20.024 9.26445 19.963V11.9158C9.92374 11.809 10.7847 11.748 11.69 11.748C13.1956 11.748 14.1747 12.0276 14.9373 12.6224C15.7589 13.2527 16.2804 14.2593 16.2804 15.7081ZM2.42066 20.0036V11.9158C2.97171 11.8192 3.74908 11.748 4.84625 11.748C5.95326 11.748 6.74047 11.9666 7.27183 12.4038C7.7786 12.8155 8.11808 13.4967 8.11808 14.2999C8.11808 15.1031 7.86224 15.7843 7.38991 16.2469C6.77983 16.8417 5.86962 17.1111 4.81181 17.1111C4.57565 17.1111 4.36408 17.1009 4.20172 17.0755V20.0087L2.42066 20.0036ZM20.7675 26.6071H3.23247V21.3152H20.7675V26.6071ZM22.3075 13.3239H19.2571V15.1997H22.1058V16.7095H19.2571V20.0036H17.4563V11.8039H22.3075V13.3239Z" fill="white"/>
</g>
<defs>
<clipPath id="clip0_1_131">
<rect width="24" height="28" fill="white"/>
</clipPath>
</defs>
</svg>
